<svg width="480" height="233" viewBox="0 0 480 233" fill="none" xmlns="http://www.w3.org/2000/svg">
<g filter="url(#filter0_d)">
<g filter="url(#filter1_d)">
<g clip-path="url(#clip0)">
<path d="M40 43C40 31.9543 48.9543 23 60 23H420C431.046 23 440 31.9543 440 43V270C440 281.046 431.046 290 420 290H60C48.9543 290 40 281.046 40 270V43Z" fill="white"/>
<g clip-path="url(#clip1)">
<rect width="400" height="500" transform="translate(40 23)" fill="white"/>
<path d="M86.924 56.4V69H84.62V58.38H78.086V69H75.782V56.4H86.924ZM94.5089 69.126C93.5369 69.126 92.6609 68.916 91.8809 68.496C91.1009 68.076 90.4889 67.494 90.0449 66.75C89.6129 65.994 89.3969 65.142 89.3969 64.194C89.3969 63.246 89.6129 62.4 90.0449 61.656C90.4889 60.912 91.1009 60.33 91.8809 59.91C92.6609 59.49 93.5369 59.28 94.5089 59.28C95.4929 59.28 96.3749 59.49 97.1549 59.91C97.9349 60.33 98.5409 60.912 98.9729 61.656C99.4169 62.4 99.6389 63.246 99.6389 64.194C99.6389 65.142 99.4169 65.994 98.9729 66.75C98.5409 67.494 97.9349 68.076 97.1549 68.496C96.3749 68.916 95.4929 69.126 94.5089 69.126ZM94.5089 67.2C95.3369 67.2 96.0209 66.924 96.5609 66.372C97.1009 65.82 97.3709 65.094 97.3709 64.194C97.3709 63.294 97.1009 62.568 96.5609 62.016C96.0209 61.464 95.3369 61.188 94.5089 61.188C93.6809 61.188 92.9969 61.464 92.4569 62.016C91.9289 62.568 91.6649 63.294 91.6649 64.194C91.6649 65.094 91.9289 65.82 92.4569 66.372C92.9969 66.924 93.6809 67.2 94.5089 67.2ZM108.828 63.996C110.016 64.356 110.61 65.124 110.61 66.3C110.61 67.164 110.286 67.83 109.638 68.298C108.99 68.766 108.03 69 106.758 69H101.862V59.388H106.56C107.736 59.388 108.654 59.604 109.314 60.036C109.974 60.468 110.304 61.08 110.304 61.872C110.304 62.364 110.172 62.79 109.908 63.15C109.656 63.51 109.296 63.792 108.828 63.996ZM104.004 63.402H106.362C107.526 63.402 108.108 63 108.108 62.196C108.108 61.416 107.526 61.026 106.362 61.026H104.004V63.402ZM106.578 67.362C107.814 67.362 108.432 66.96 108.432 66.156C108.432 65.736 108.288 65.424 108 65.22C107.712 65.004 107.262 64.896 106.65 64.896H104.004V67.362H106.578ZM113.006 59.388H115.256V69H113.006V59.388ZM114.14 57.804C113.732 57.804 113.39 57.678 113.114 57.426C112.838 57.162 112.7 56.838 112.7 56.454C112.7 56.07 112.838 55.752 113.114 55.5C113.39 55.236 113.732 55.104 114.14 55.104C114.548 55.104 114.89 55.23 115.166 55.482C115.442 55.722 115.58 56.028 115.58 56.4C115.58 56.796 115.442 57.132 115.166 57.408C114.902 57.672 114.56 57.804 114.14 57.804ZM128.557 67.092V71.142H126.451V69H119.035V71.142H116.947V67.092H117.397C118.009 67.068 118.423 66.678 118.639 65.922C118.867 65.154 119.017 64.074 119.089 62.682L119.215 59.388H127.135V67.092H128.557ZM121.141 62.844C121.093 63.948 121.003 64.848 120.871 65.544C120.739 66.24 120.499 66.756 120.151 67.092H124.885V61.296H121.195L121.141 62.844ZM134.851 69.126C133.879 69.126 133.003 68.916 132.223 68.496C131.443 68.076 130.831 67.494 130.387 66.75C129.955 65.994 129.739 65.142 129.739 64.194C129.739 63.246 129.955 62.4 130.387 61.656C130.831 60.912 131.443 60.33 132.223 59.91C133.003 59.49 133.879 59.28 134.851 59.28C135.835 59.28 136.717 59.49 137.497 59.91C138.277 60.33 138.883 60.912 139.315 61.656C139.759 62.4 139.981 63.246 139.981 64.194C139.981 65.142 139.759 65.994 139.315 66.75C138.883 67.494 138.277 68.076 137.497 68.496C136.717 68.916 135.835 69.126 134.851 69.126ZM134.851 67.2C135.679 67.2 136.363 66.924 136.903 66.372C137.443 65.82 137.713 65.094 137.713 64.194C137.713 63.294 137.443 62.568 136.903 62.016C136.363 61.464 135.679 61.188 134.851 61.188C134.023 61.188 133.339 61.464 132.799 62.016C132.271 62.568 132.007 63.294 132.007 64.194C132.007 65.094 132.271 65.82 132.799 66.372C133.339 66.924 134.023 67.2 134.851 67.2ZM151.653 69V62.628L148.413 67.992H147.441L144.255 62.61V69H142.203V59.388H144.561L147.981 65.4L151.563 59.388H153.669L153.687 69H151.653ZM165.417 59.388V69H163.167V61.296H159.567L159.477 63.204C159.417 64.476 159.297 65.544 159.117 66.408C158.949 67.26 158.655 67.938 158.235 68.442C157.827 68.934 157.263 69.18 156.543 69.18C156.207 69.18 155.793 69.114 155.301 68.982L155.409 67.092C155.577 67.128 155.721 67.146 155.841 67.146C156.297 67.146 156.639 66.966 156.867 66.606C157.095 66.234 157.239 65.796 157.299 65.292C157.371 64.776 157.431 64.044 157.479 63.096L157.641 59.388H165.417ZM177.448 64.248C177.448 64.404 177.436 64.626 177.412 64.914H169.87C170.002 65.622 170.344 66.186 170.896 66.606C171.46 67.014 172.156 67.218 172.984 67.218C174.04 67.218 174.91 66.87 175.594 66.174L176.8 67.56C176.368 68.076 175.822 68.466 175.162 68.73C174.502 68.994 173.758 69.126 172.93 69.126C171.874 69.126 170.944 68.916 170.14 68.496C169.336 68.076 168.712 67.494 168.268 66.75C167.836 65.994 167.62 65.142 167.62 64.194C167.62 63.258 167.83 62.418 168.25 61.674C168.682 60.918 169.276 60.33 170.032 59.91C170.788 59.49 171.64 59.28 172.588 59.28C173.524 59.28 174.358 59.49 175.09 59.91C175.834 60.318 176.41 60.9 176.818 61.656C177.238 62.4 177.448 63.264 177.448 64.248ZM172.588 61.08C171.868 61.08 171.256 61.296 170.752 61.728C170.26 62.148 169.96 62.712 169.852 63.42H175.306C175.21 62.724 174.916 62.16 174.424 61.728C173.932 61.296 173.32 61.08 172.588 61.08ZM179.908 59.388H182.158V63.294H187V59.388H189.25V69H187V65.202H182.158V69H179.908V59.388ZM192.266 59.388H194.516V63.294H199.358V59.388H201.608V69H199.358V65.202H194.516V69H192.266V59.388ZM212.741 59.388V69H210.725V66.102H208.187L206.225 69H203.813L206.081 65.796C205.385 65.556 204.851 65.19 204.479 64.698C204.119 64.194 203.939 63.576 203.939 62.844C203.939 61.74 204.329 60.888 205.109 60.288C205.889 59.688 206.963 59.388 208.331 59.388H212.741ZM208.403 61.278C206.951 61.278 206.225 61.824 206.225 62.916C206.225 63.996 206.927 64.536 208.331 64.536H210.725V61.278H208.403Z" fill="#0A0A0B"/>
<path d="M40 89L440 89" stroke="#D4D4D8" stroke-linecap="round"/>
<rect width="400" height="216" transform="translate(40 90)" fill="#EFF8FB"/>
<circle cx="56" cy="122" r="3" fill="#FF6666"/>
<path d="M76.336 126.656C76.966 127.496 78.366 128.168 80.032 128.168C82.188 128.168 83.728 127.034 83.728 125.452C83.728 124.01 82.468 123.268 81.558 123.184C82.524 123.016 83.588 122.288 83.588 121.042C83.588 119.474 82.048 118.522 80.032 118.522C78.478 118.522 77.176 119.152 76.462 119.992L77.302 121.014C77.974 120.342 78.926 119.978 79.878 119.978C81.026 119.978 81.95 120.426 81.95 121.294C81.95 122.148 81.04 122.526 79.85 122.526H78.254V123.968H79.85C81.278 123.968 82.104 124.36 82.104 125.284C82.104 126.152 81.306 126.712 79.976 126.712C78.982 126.712 77.82 126.278 77.218 125.578L76.336 126.656ZM85.7001 122.19C86.4701 121.644 87.0161 120.762 87.0161 119.796C87.0161 118.984 86.4981 118.522 85.9241 118.522C85.4061 118.522 84.9721 118.956 84.9721 119.488C84.9721 120.006 85.3361 120.37 85.8121 120.37C85.8961 120.37 86.0081 120.342 86.0501 120.328C85.9521 120.804 85.4901 121.378 85.0421 121.644L85.7001 122.19ZM88.3761 128H90.0561L91.5401 125.55H93.0941V128H94.5641V121.238H90.7001C89.2441 121.238 88.4601 122.232 88.4601 123.394C88.4601 124.556 89.1601 125.284 90.0421 125.48L88.3761 128ZM93.0941 124.262H90.8821C90.2941 124.262 89.9581 123.898 89.9581 123.394C89.9581 122.89 90.3221 122.526 90.8821 122.526H93.0941V124.262ZM96.4618 128H100.298C101.922 128 102.65 127.216 102.65 126.166C102.65 125.368 102.104 124.682 101.376 124.514C101.992 124.332 102.51 123.786 102.51 122.974C102.51 122.008 101.796 121.238 100.256 121.238H96.4618V128ZM101.012 123.226C101.012 123.604 100.732 123.898 100.256 123.898H97.9318V122.526H100.256C100.732 122.526 101.012 122.806 101.012 123.226ZM101.138 125.956C101.138 126.432 100.816 126.712 100.298 126.712H97.9318V125.186H100.298C100.844 125.186 101.138 125.55 101.138 125.956ZM104.132 128H105.546L108.71 123.324V128H110.18V121.238H108.71L105.602 125.788V121.238H104.132V128ZM111.389 126.712V128.168C112.873 128.168 113.937 127.16 114.189 122.988L114.217 122.526H116.667V128H118.137V121.238H112.915L112.803 122.918C112.607 125.858 112.103 126.712 111.389 126.712ZM123.098 128.168C125.268 128.168 126.584 126.558 126.584 124.612C126.584 122.68 125.268 121.07 123.098 121.07C120.956 121.07 119.626 122.68 119.626 124.612C119.626 126.558 120.956 128.168 123.098 128.168ZM123.098 126.866C121.852 126.866 121.152 125.816 121.152 124.612C121.152 123.422 121.852 122.372 123.098 122.372C124.358 122.372 125.058 123.422 125.058 124.612C125.058 125.816 124.358 126.866 123.098 126.866ZM127.651 124.612C127.651 126.67 129.093 128.168 131.151 128.168C132.467 128.168 133.265 127.608 133.741 126.964L132.775 126.068C132.397 126.586 131.879 126.866 131.221 126.866C129.989 126.866 129.177 125.928 129.177 124.612C129.177 123.296 129.989 122.372 131.221 122.372C131.879 122.372 132.397 122.638 132.775 123.17L133.741 122.274C133.265 121.63 132.467 121.07 131.151 121.07C129.093 121.07 127.651 122.568 127.651 124.612ZM134.792 128H136.472L137.956 125.55H139.51V128H140.98V121.238H137.116C135.66 121.238 134.876 122.232 134.876 123.394C134.876 124.556 135.576 125.284 136.458 125.48L134.792 128ZM139.51 124.262H137.298C136.71 124.262 136.374 123.898 136.374 123.394C136.374 122.89 136.738 122.526 137.298 122.526H139.51V124.262ZM146.221 128H152.983V126.558H148.839C151.345 124.668 152.927 123.128 152.927 121.406C152.927 119.544 151.345 118.522 149.539 118.522C148.237 118.522 146.921 119.026 146.095 120.02L147.047 121.098C147.635 120.426 148.475 119.978 149.567 119.978C150.421 119.978 151.261 120.426 151.261 121.406C151.261 122.75 149.847 123.968 146.221 126.712V128ZM154.548 128H161.31V126.558H157.166C159.672 124.668 161.254 123.128 161.254 121.406C161.254 119.544 159.672 118.522 157.866 118.522C156.564 118.522 155.248 119.026 154.422 120.02L155.374 121.098C155.962 120.426 156.802 119.978 157.894 119.978C158.748 119.978 159.588 120.426 159.588 121.406C159.588 122.75 158.174 123.968 154.548 126.712V128ZM166.05 127.076C166.694 127.734 167.716 128.168 169.004 128.168C170.922 128.168 172.028 127.328 172.028 126.166C172.028 125.102 170.908 124.598 170.152 124.542C170.95 124.416 171.888 123.842 171.888 122.918C171.888 121.77 170.754 121.07 168.836 121.084C167.688 121.084 166.778 121.532 166.162 122.19L166.89 123.086C167.408 122.54 168.08 122.274 168.906 122.274C169.774 122.274 170.362 122.624 170.362 123.114C170.362 123.702 169.816 123.996 168.878 123.996H167.73V125.172H168.878C169.886 125.172 170.488 125.41 170.488 126.054C170.488 126.6 169.97 126.978 169.004 126.978C168.192 126.978 167.45 126.628 166.848 126.068L166.05 127.076ZM179.887 128H181.357V121.238H179.425L177.437 125.746L175.421 121.238H173.503V128H174.973V123.156L177.143 128H177.731L179.887 123.156V128ZM183.993 120.118C184.497 120.118 184.903 119.712 184.903 119.208C184.903 118.704 184.497 118.298 183.993 118.298C183.503 118.298 183.083 118.704 183.083 119.208C183.083 119.712 183.503 120.118 183.993 120.118ZM183.265 128H184.735V121.238H183.265V128ZM186.641 128H188.111V125.186H191.219V128H192.689V121.238H191.219V123.898H188.111V121.238H186.641V128ZM194.598 128H196.012L199.176 123.324V128H200.646V121.238H199.176L196.068 125.788V121.238H194.598V128ZM206.081 129.33L205.857 130.646C206.067 130.702 206.473 130.744 206.683 130.744C207.733 130.73 208.545 130.366 209.007 129.218L212.269 121.238H210.687L208.713 126.306L206.739 121.238H205.171L207.943 128.084L207.607 128.854C207.411 129.302 207.103 129.442 206.641 129.442C206.473 129.442 206.235 129.4 206.081 129.33ZM216.788 128H220.624C222.248 128 222.976 127.216 222.976 126.166C222.976 125.368 222.43 124.682 221.702 124.514C222.318 124.332 222.836 123.786 222.836 122.974C222.836 122.008 222.122 121.238 220.582 121.238H216.788V128ZM221.338 123.226C221.338 123.604 221.058 123.898 220.582 123.898H218.258V122.526H220.582C221.058 122.526 221.338 122.806 221.338 123.226ZM221.464 125.956C221.464 126.432 221.142 126.712 220.624 126.712H218.258V125.186H220.624C221.17 125.186 221.464 125.55 221.464 125.956ZM224.458 128H225.872L229.036 123.324V128H230.506V121.238H229.036L225.928 125.788V121.238H224.458V128ZM238.799 128H240.269V121.238H238.337L236.349 125.746L234.333 121.238H232.415V128H233.885V123.156L236.055 128H236.643L238.799 123.156V128ZM245.229 128.168C247.399 128.168 248.715 126.558 248.715 124.612C248.715 122.68 247.399 121.07 245.229 121.07C243.087 121.07 241.757 122.68 241.757 124.612C241.757 126.558 243.087 128.168 245.229 128.168ZM245.229 126.866C243.983 126.866 243.283 125.816 243.283 124.612C243.283 123.422 243.983 122.372 245.229 122.372C246.489 122.372 247.189 123.422 247.189 124.612C247.189 125.816 246.489 126.866 245.229 126.866ZM255.326 122.526V121.238H250.202V128H251.672V122.526H255.326ZM260.662 128H262.132V123.52C262.132 121.7 260.816 121.07 259.318 121.07C258.24 121.07 257.26 121.42 256.476 122.162L257.078 123.184C257.666 122.61 258.324 122.33 259.08 122.33C260.018 122.33 260.662 122.806 260.662 123.59V124.598C260.172 124.024 259.388 123.73 258.478 123.73C257.372 123.73 256.126 124.374 256.126 125.928C256.126 127.426 257.372 128.168 258.478 128.168C259.374 128.168 260.158 127.846 260.662 127.272V128ZM260.662 126.46C260.326 126.922 259.696 127.16 259.052 127.16C258.226 127.16 257.61 126.684 257.61 125.956C257.61 125.214 258.226 124.738 259.052 124.738C259.696 124.738 260.326 124.976 260.662 125.438V126.46ZM268.308 128H269.96L267.468 124.528L269.806 121.238H268.154L266.558 123.534L264.948 121.238H263.296L265.634 124.528L263.156 128H264.794L266.558 125.508L268.308 128ZM273.879 126.712V129.722H275.167V128H280.081V129.722H281.369V126.712H280.627V121.238H275.489L275.363 122.834C275.181 125.116 274.873 126.096 274.495 126.712H273.879ZM276.665 123.226L276.707 122.526H279.157V126.712H275.895C276.175 126.292 276.539 125.424 276.665 123.226ZM285.629 128.168C287.799 128.168 289.115 126.558 289.115 124.612C289.115 122.68 287.799 121.07 285.629 121.07C283.487 121.07 282.157 122.68 282.157 124.612C282.157 126.558 283.487 128.168 285.629 128.168ZM285.629 126.866C284.383 126.866 283.683 125.816 283.683 124.612C283.683 123.422 284.383 122.372 285.629 122.372C286.889 122.372 287.589 123.422 287.589 124.612C287.589 125.816 286.889 126.866 285.629 126.866ZM295.43 128H296.9V122.526H298.846V121.238H293.498V122.526H295.43V128ZM299.63 124.612C299.63 126.754 301.142 128.168 303.172 128.168C304.25 128.168 305.244 127.832 305.916 127.188L305.244 126.222C304.768 126.698 303.984 126.964 303.326 126.964C302.052 126.964 301.282 126.124 301.17 125.102H306.392V124.752C306.392 122.624 305.09 121.07 303.06 121.07C301.058 121.07 299.63 122.652 299.63 124.612ZM303.06 122.274C304.39 122.274 304.936 123.268 304.964 124.066H301.156C301.226 123.24 301.8 122.274 303.06 122.274ZM307.843 128H309.313V125.186H312.421V128H313.891V121.238H312.421V123.898H309.313V121.238H307.843V128ZM315.1 126.712V129.722H316.388V128H321.302V129.722H322.59V126.712H321.848V121.238H316.71L316.584 122.834C316.402 125.116 316.094 126.096 315.716 126.712H315.1ZM317.886 123.226L317.928 122.526H320.378V126.712H317.116C317.396 126.292 317.76 125.424 317.886 123.226ZM323.378 124.612C323.378 126.754 324.89 128.168 326.92 128.168C327.998 128.168 328.992 127.832 329.664 127.188L328.992 126.222C328.516 126.698 327.732 126.964 327.074 126.964C325.8 126.964 325.03 126.124 324.918 125.102H330.14V124.752C330.14 122.624 328.838 121.07 326.808 121.07C324.806 121.07 323.378 122.652 323.378 124.612ZM326.808 122.274C328.138 122.274 328.684 123.268 328.712 124.066H324.904C324.974 123.24 325.548 122.274 326.808 122.274ZM333.061 130.576V127.062C333.607 127.79 334.377 128.168 335.231 128.168C336.981 128.168 338.227 126.838 338.227 124.612C338.227 122.386 336.981 121.07 335.231 121.07C334.349 121.07 333.565 121.49 333.061 122.162V121.238H331.591V130.576H333.061ZM336.701 124.612C336.701 125.928 335.959 126.866 334.797 126.866C334.111 126.866 333.383 126.446 333.061 125.956V123.282C333.383 122.778 334.111 122.372 334.797 122.372C335.959 122.372 336.701 123.31 336.701 124.612ZM339.712 128H341.182V125.186H344.29V128H345.76V121.238H344.29V123.898H341.182V121.238H339.712V128ZM350.721 128.168C352.891 128.168 354.207 126.558 354.207 124.612C354.207 122.68 352.891 121.07 350.721 121.07C348.579 121.07 347.249 122.68 347.249 124.612C347.249 126.558 348.579 128.168 350.721 128.168ZM350.721 126.866C349.475 126.866 348.775 125.816 348.775 124.612C348.775 123.422 349.475 122.372 350.721 122.372C351.981 122.372 352.681 123.422 352.681 124.612C352.681 125.816 351.981 126.866 350.721 126.866ZM354.966 120.104C355.414 120.104 355.778 119.74 355.778 119.278C355.778 118.83 355.414 118.466 354.966 118.466C354.504 118.466 354.14 118.83 354.14 119.278C354.14 119.74 354.504 120.104 354.966 120.104ZM357.892 120.104C358.34 120.104 358.718 119.74 358.718 119.278C358.718 118.83 358.34 118.466 357.892 118.466C357.444 118.466 357.066 118.83 357.066 119.278C357.066 119.74 357.444 120.104 357.892 120.104ZM355.694 128H357.164V121.238H355.694V128ZM76.252 146.712V149.722H77.54V148H82.454V149.722H83.742V146.712H83V141.238H77.862L77.736 142.834C77.554 145.116 77.246 146.096 76.868 146.712H76.252ZM79.038 143.226L79.08 142.526H81.53V146.712H78.268C78.548 146.292 78.912 145.424 79.038 143.226ZM88.002 148.168C90.172 148.168 91.488 146.558 91.488 144.612C91.488 142.68 90.172 141.07 88.002 141.07C85.86 141.07 84.53 142.68 84.53 144.612C84.53 146.558 85.86 148.168 88.002 148.168ZM88.002 146.866C86.756 146.866 86.056 145.816 86.056 144.612C86.056 143.422 86.756 142.372 88.002 142.372C89.262 142.372 89.962 143.422 89.962 144.612C89.962 145.816 89.262 146.866 88.002 146.866ZM97.4554 148H99.3034L96.4334 144.304L99.2474 141.238H97.4274L94.4454 144.5V141.238H92.9754V148H94.4454V146.18L95.3834 145.214L97.4554 148ZM100.275 149.33L100.051 150.646C100.261 150.702 100.667 150.744 100.877 150.744C101.927 150.73 102.739 150.366 103.201 149.218L106.463 141.238H104.881L102.907 146.306L100.933 141.238H99.3646L102.137 148.084L101.801 148.854C101.605 149.302 101.297 149.442 100.835 149.442C100.667 149.442 100.429 149.4 100.275 149.33ZM113.77 148H115.24V141.238H113.308L111.32 145.746L109.304 141.238H107.386V148H108.856V143.156L111.026 148H111.614L113.77 143.156V148ZM116.727 144.612C116.727 146.754 118.239 148.168 120.269 148.168C121.347 148.168 122.341 147.832 123.013 147.188L122.341 146.222C121.865 146.698 121.081 146.964 120.423 146.964C119.149 146.964 118.379 146.124 118.267 145.102H123.489V144.752C123.489 142.624 122.187 141.07 120.157 141.07C118.155 141.07 116.727 142.652 116.727 144.612ZM120.157 142.274C121.487 142.274 122.033 143.268 122.061 144.066H118.253C118.323 143.24 118.897 142.274 120.157 142.274ZM124.94 148H126.41V145.186H129.518V148H130.988V141.238H129.518V143.898H126.41V141.238H124.94V148ZM134.129 148H135.599V142.526H137.545V141.238H132.197V142.526H134.129V148ZM142.879 148H144.349V143.52C144.349 141.7 143.033 141.07 141.535 141.07C140.457 141.07 139.477 141.42 138.693 142.162L139.295 143.184C139.883 142.61 140.541 142.33 141.297 142.33C142.235 142.33 142.879 142.806 142.879 143.59V144.598C142.389 144.024 141.605 143.73 140.695 143.73C139.589 143.73 138.343 144.374 138.343 145.928C138.343 147.426 139.589 148.168 140.695 148.168C141.591 148.168 142.375 147.846 142.879 147.272V148ZM142.879 146.46C142.543 146.922 141.913 147.16 141.269 147.16C140.443 147.16 139.827 146.684 139.827 145.956C139.827 145.214 140.443 144.738 141.269 144.738C141.913 144.738 142.543 144.976 142.879 145.438V146.46ZM151.617 148V149.722H152.905V146.712H152.163V141.238H150.693V146.712H147.725V141.238H146.255V148H151.617ZM154.83 140.118C155.334 140.118 155.74 139.712 155.74 139.208C155.74 138.704 155.334 138.298 154.83 138.298C154.34 138.298 153.92 138.704 153.92 139.208C153.92 139.712 154.34 140.118 154.83 140.118ZM154.102 148H155.572V141.238H154.102V148ZM157.025 140.104C157.473 140.104 157.837 139.74 157.837 139.278C157.837 138.83 157.473 138.466 157.025 138.466C156.563 138.466 156.199 138.83 156.199 139.278C156.199 139.74 156.563 140.104 157.025 140.104ZM159.951 140.104C160.399 140.104 160.777 139.74 160.777 139.278C160.777 138.83 160.399 138.466 159.951 138.466C159.503 138.466 159.125 138.83 159.125 139.278C159.125 139.74 159.503 140.104 159.951 140.104ZM157.753 148H159.223V141.238H157.753V148Z" fill="#FF6666"/>
<path d="M77.092 184.374C77.092 186.67 78.366 188.168 80.9 188.168C83.434 188.168 84.708 186.684 84.708 184.36V178.662H83.546V184.346C83.546 186.054 82.622 187.132 80.9 187.132C79.178 187.132 78.254 186.054 78.254 184.346V178.662H77.092V184.374ZM93.2316 188H94.5196L90.7536 178.662H89.3116L85.5596 188H86.8476L87.6736 185.928H92.4056L93.2316 188ZM90.0396 179.698L92.0556 184.892H88.0096L90.0396 179.698ZM95.0684 185.074H98.4284V184.15H95.0684V185.074ZM99.6017 188H106.014V186.964H101.436C104.04 184.906 105.972 183.17 105.972 181.266C105.972 179.404 104.39 178.522 102.836 178.522C101.52 178.522 100.302 179.054 99.5877 179.992L100.302 180.734C100.848 180.034 101.716 179.558 102.836 179.558C103.802 179.558 104.782 180.076 104.782 181.266C104.782 182.876 102.962 184.43 99.6017 187.076V188ZM107.79 183.338C107.79 185.606 108.798 188.168 111.36 188.168C113.908 188.168 114.93 185.606 114.93 183.338C114.93 181.056 113.908 178.522 111.36 178.522C108.798 178.522 107.79 181.056 107.79 183.338ZM113.74 183.338C113.74 185.2 113.138 187.132 111.36 187.132C109.582 187.132 108.98 185.2 108.98 183.338C108.98 181.476 109.582 179.558 111.36 179.558C113.138 179.558 113.74 181.476 113.74 183.338ZM116.404 188H122.816V186.964H118.238C120.842 184.906 122.774 183.17 122.774 181.266C122.774 179.404 121.192 178.522 119.638 178.522C118.322 178.522 117.104 179.054 116.39 179.992L117.104 180.734C117.65 180.034 118.518 179.558 119.638 179.558C120.604 179.558 121.584 180.076 121.584 181.266C121.584 182.876 119.764 184.43 116.404 187.076V188ZM126.371 188H127.533V178.662H126.511L124.173 181.07L124.873 181.784L126.371 180.202V188ZM129.043 185.074H132.403V184.15H129.043V185.074ZM133.534 183.338C133.534 185.606 134.542 188.168 137.104 188.168C139.652 188.168 140.674 185.606 140.674 183.338C140.674 181.056 139.652 178.522 137.104 178.522C134.542 178.522 133.534 181.056 133.534 183.338ZM139.484 183.338C139.484 185.2 138.882 187.132 137.104 187.132C135.326 187.132 134.724 185.2 134.724 183.338C134.724 181.476 135.326 179.558 137.104 179.558C138.882 179.558 139.484 181.476 139.484 183.338ZM142.149 188H148.561V186.964H143.983C146.587 184.906 148.519 183.17 148.519 181.266C148.519 179.404 146.937 178.522 145.383 178.522C144.067 178.522 142.849 179.054 142.135 179.992L142.849 180.734C143.395 180.034 144.263 179.558 145.383 179.558C146.349 179.558 147.329 180.076 147.329 181.266C147.329 182.876 145.509 184.43 142.149 187.076V188ZM150.043 185.074H153.403V184.15H150.043V185.074ZM154.576 188H160.988V186.964H156.41C159.014 184.906 160.946 183.17 160.946 181.266C160.946 179.404 159.364 178.522 157.81 178.522C156.494 178.522 155.276 179.054 154.562 179.992L155.276 180.734C155.822 180.034 156.69 179.558 157.81 179.558C158.776 179.558 159.756 180.076 159.756 181.266C159.756 182.876 157.936 184.43 154.576 187.076V188ZM162.807 188H169.219V186.964H164.641C167.245 184.906 169.177 183.17 169.177 181.266C169.177 179.404 167.595 178.522 166.041 178.522C164.725 178.522 163.507 179.054 162.793 179.992L163.507 180.734C164.053 180.034 164.921 179.558 166.041 179.558C167.007 179.558 167.987 180.076 167.987 181.266C167.987 182.876 166.167 184.43 162.807 187.076V188ZM170.701 185.074H174.061V184.15H170.701V185.074ZM175.193 183.338C175.193 185.606 176.201 188.168 178.763 188.168C181.311 188.168 182.333 185.606 182.333 183.338C182.333 181.056 181.311 178.522 178.763 178.522C176.201 178.522 175.193 181.056 175.193 183.338ZM181.143 183.338C181.143 185.2 180.541 187.132 178.763 187.132C176.985 187.132 176.383 185.2 176.383 183.338C176.383 181.476 176.985 179.558 178.763 179.558C180.541 179.558 181.143 181.476 181.143 183.338ZM183.765 183.338C183.765 185.606 184.773 188.168 187.335 188.168C189.883 188.168 190.905 185.606 190.905 183.338C190.905 181.056 189.883 178.522 187.335 178.522C184.773 178.522 183.765 181.056 183.765 183.338ZM189.715 183.338C189.715 185.2 189.113 187.132 187.335 187.132C185.557 187.132 184.955 185.2 184.955 183.338C184.955 181.476 185.557 179.558 187.335 179.558C189.113 179.558 189.715 181.476 189.715 183.338ZM192.799 187.034C193.387 187.706 194.199 188.154 195.389 188.154C198.007 188.154 199.183 185.858 199.183 183.338C199.183 180.79 198.189 178.508 195.571 178.508C193.541 178.508 192.309 179.95 192.309 181.56C192.309 183.548 193.695 184.542 195.375 184.542C196.565 184.542 197.601 183.73 198.007 183.086C198.021 183.212 198.021 183.338 198.021 183.464C198.021 185.228 197.279 187.118 195.389 187.118C194.423 187.118 193.863 186.726 193.387 186.166L192.799 187.034ZM197.965 182.148C197.475 182.974 196.565 183.534 195.641 183.534C194.437 183.534 193.485 182.89 193.485 181.518C193.485 180.636 194.199 179.544 195.627 179.544C197.251 179.544 197.867 180.986 197.965 182.148ZM201.071 187.034C201.659 187.706 202.471 188.154 203.661 188.154C206.279 188.154 207.455 185.858 207.455 183.338C207.455 180.79 206.461 178.508 203.843 178.508C201.813 178.508 200.581 179.95 200.581 181.56C200.581 183.548 201.967 184.542 203.647 184.542C204.837 184.542 205.873 183.73 206.279 183.086C206.293 183.212 206.293 183.338 206.293 183.464C206.293 185.228 205.551 187.118 203.661 187.118C202.695 187.118 202.135 186.726 201.659 186.166L201.071 187.034ZM206.237 182.148C205.747 182.974 204.837 183.534 203.913 183.534C202.709 183.534 201.757 182.89 201.757 181.518C201.757 180.636 202.471 179.544 203.899 179.544C205.523 179.544 206.139 180.986 206.237 182.148ZM213.052 188H214.214V185.634H215.53V184.612H214.214V178.662H212.618L208.614 184.668V185.634H213.052V188ZM213.052 179.74V184.612H209.776L213.052 179.74ZM217.149 187.034C217.737 187.706 218.549 188.154 219.739 188.154C222.357 188.154 223.533 185.858 223.533 183.338C223.533 180.79 222.539 178.508 219.921 178.508C217.891 178.508 216.659 179.95 216.659 181.56C216.659 183.548 218.045 184.542 219.725 184.542C220.915 184.542 221.951 183.73 222.357 183.086C222.371 183.212 222.371 183.338 222.371 183.464C222.371 185.228 221.629 187.118 219.739 187.118C218.773 187.118 218.213 186.726 217.737 186.166L217.149 187.034ZM222.315 182.148C221.825 182.974 220.915 183.534 219.991 183.534C218.787 183.534 217.835 182.89 217.835 181.518C217.835 180.636 218.549 179.544 219.977 179.544C221.601 179.544 222.217 180.986 222.315 182.148ZM224.664 185.074H228.024V184.15H224.664V185.074ZM229.491 188H230.541V186.992C231.045 187.678 231.871 188.168 232.823 188.168C234.587 188.168 235.833 186.824 235.833 184.626C235.833 182.47 234.587 181.07 232.823 181.07C231.899 181.07 231.087 181.518 230.541 182.26V178.662H229.491V188ZM230.541 186.166V183.1C230.905 182.512 231.731 182.008 232.557 182.008C233.929 182.008 234.741 183.128 234.741 184.626C234.741 186.124 233.929 187.23 232.557 187.23C231.731 187.23 230.905 186.754 230.541 186.166Z" fill="#898994"/>
<path d="M76.994 216H83.392V214.558H78.632V211.968H83.294V210.526H78.632V208.104H83.392V206.662H76.994V216ZM84.3321 214.712V216.168C85.8161 216.168 86.8801 215.16 87.1321 210.988L87.1601 210.526H89.6101V216H91.0801V209.238H85.8581L85.7461 210.918C85.5501 213.858 85.0461 214.712 84.3321 214.712ZM92.5691 212.612C92.5691 214.754 94.0811 216.168 96.1111 216.168C97.1891 216.168 98.1831 215.832 98.8551 215.188L98.1831 214.222C97.7071 214.698 96.9231 214.964 96.2651 214.964C94.9911 214.964 94.2211 214.124 94.1091 213.102H99.3311V212.752C99.3311 210.624 98.0291 209.07 95.9991 209.07C93.9971 209.07 92.5691 210.652 92.5691 212.612ZM95.9991 210.274C97.3291 210.274 97.8751 211.268 97.9031 212.066H94.0951C94.1651 211.24 94.7391 210.274 95.9991 210.274ZM105.262 216H107.11L104.24 212.304L107.054 209.238H105.234L102.252 212.5V209.238H100.782V216H102.252V214.18L103.19 213.214L105.262 216ZM109.383 216H110.853V210.526H112.799V209.238H107.451V210.526H109.383V216ZM115.473 218.576V215.062C116.019 215.79 116.789 216.168 117.643 216.168C119.393 216.168 120.639 214.838 120.639 212.612C120.639 210.386 119.393 209.07 117.643 209.07C116.761 209.07 115.977 209.49 115.473 210.162V209.238H114.003V218.576H115.473ZM119.113 212.612C119.113 213.928 118.371 214.866 117.209 214.866C116.523 214.866 115.795 214.446 115.473 213.956V211.282C115.795 210.778 116.523 210.372 117.209 210.372C118.371 210.372 119.113 211.31 119.113 212.612ZM122.124 216H123.538L126.702 211.324V216H128.172V209.238H126.702L123.594 213.788V209.238H122.124V216ZM131.313 209.238H129.843V211.604C129.843 212.99 130.557 213.746 132.461 213.746C133.273 213.746 133.959 213.578 134.407 213.382V216H135.877V209.238H134.407V212.192C134.057 212.346 133.567 212.444 132.923 212.444C131.845 212.444 131.313 212.122 131.313 211.072V209.238ZM137.778 216H139.248V213.186H142.356V216H143.826V209.238H142.356V211.898H139.248V209.238H137.778V216ZM149.865 216H151.335V211.52C151.335 209.7 150.019 209.07 148.521 209.07C147.443 209.07 146.463 209.42 145.679 210.162L146.281 211.184C146.869 210.61 147.527 210.33 148.283 210.33C149.221 210.33 149.865 210.806 149.865 211.59V212.598C149.375 212.024 148.591 211.73 147.681 211.73C146.575 211.73 145.329 212.374 145.329 213.928C145.329 215.426 146.575 216.168 147.681 216.168C148.577 216.168 149.361 215.846 149.865 215.272V216ZM149.865 214.46C149.529 214.922 148.899 215.16 148.255 215.16C147.429 215.16 146.813 214.684 146.813 213.956C146.813 213.214 147.429 212.738 148.255 212.738C148.899 212.738 149.529 212.976 149.865 213.438V214.46ZM156.417 212.612C156.417 214.754 157.929 216.168 159.959 216.168C161.037 216.168 162.031 215.832 162.703 215.188L162.031 214.222C161.555 214.698 160.771 214.964 160.113 214.964C158.839 214.964 158.069 214.124 157.957 213.102H163.179V212.752C163.179 210.624 161.877 209.07 159.847 209.07C157.845 209.07 156.417 210.652 156.417 212.612ZM159.847 210.274C161.177 210.274 161.723 211.268 161.751 212.066H157.943C158.013 211.24 158.587 210.274 159.847 210.274ZM164.63 216H166.1V213.186H169.208V216H170.678V209.238H169.208V211.898H166.1V209.238H164.63V216ZM172.167 212.612C172.167 214.754 173.679 216.168 175.709 216.168C176.787 216.168 177.781 215.832 178.453 215.188L177.781 214.222C177.305 214.698 176.521 214.964 175.863 214.964C174.589 214.964 173.819 214.124 173.707 213.102H178.929V212.752C178.929 210.624 177.627 209.07 175.597 209.07C173.595 209.07 172.167 210.652 172.167 212.612ZM175.597 210.274C176.927 210.274 177.473 211.268 177.501 212.066H173.693C173.763 211.24 174.337 210.274 175.597 210.274ZM181.85 218.576V215.062C182.396 215.79 183.166 216.168 184.02 216.168C185.77 216.168 187.016 214.838 187.016 212.612C187.016 210.386 185.77 209.07 184.02 209.07C183.138 209.07 182.354 209.49 181.85 210.162V209.238H180.38V218.576H181.85ZM185.49 212.612C185.49 213.928 184.748 214.866 183.586 214.866C182.9 214.866 182.172 214.446 181.85 213.956V211.282C182.172 210.778 182.9 210.372 183.586 210.372C184.748 210.372 185.49 211.31 185.49 212.612ZM193.625 210.526V209.238H188.501V216H189.971V210.526H193.625ZM195.559 208.118C196.063 208.118 196.469 207.712 196.469 207.208C196.469 206.704 196.063 206.298 195.559 206.298C195.069 206.298 194.649 206.704 194.649 207.208C194.649 207.712 195.069 208.118 195.559 208.118ZM194.831 216H196.301V209.238H194.831V216ZM197.97 216H199.65L201.134 213.55H202.688V216H204.158V209.238H200.294C198.838 209.238 198.054 210.232 198.054 211.394C198.054 212.556 198.754 213.284 199.636 213.48L197.97 216ZM202.688 212.262H200.476C199.888 212.262 199.552 211.898 199.552 211.394C199.552 210.89 199.916 210.526 200.476 210.526H202.688V212.262ZM208.951 214.712V217.722H210.239V216H215.153V217.722H216.441V214.712H215.699V209.238H210.561L210.435 210.834C210.253 213.116 209.945 214.096 209.567 214.712H208.951ZM211.737 211.226L211.779 210.526H214.229V214.712H210.967C211.247 214.292 211.611 213.424 211.737 211.226ZM217.086 214.712V216.168C218.57 216.168 219.634 215.16 219.886 210.988L219.914 210.526H222.364V216H223.834V209.238H218.612L218.5 210.918C218.304 213.858 217.8 214.712 217.086 214.712ZM225.505 216H227.185L228.669 213.55H230.223V216H231.693V209.238H227.829C226.373 209.238 225.589 210.232 225.589 211.394C225.589 212.556 226.289 213.284 227.171 213.48L225.505 216ZM230.223 212.262H228.011C227.423 212.262 227.087 211.898 227.087 211.394C227.087 210.89 227.451 210.526 228.011 210.526H230.223V212.262ZM237.186 216H238.656V213.186H241.764V216H243.234V209.238H241.764V211.898H238.656V209.238H237.186V216ZM249.273 216H250.743V211.52C250.743 209.7 249.427 209.07 247.929 209.07C246.851 209.07 245.871 209.42 245.087 210.162L245.689 211.184C246.277 210.61 246.935 210.33 247.691 210.33C248.629 210.33 249.273 210.806 249.273 211.59V212.598C248.783 212.024 247.999 211.73 247.089 211.73C245.983 211.73 244.737 212.374 244.737 213.928C244.737 215.426 245.983 216.168 247.089 216.168C247.985 216.168 248.769 215.846 249.273 215.272V216ZM249.273 214.46C248.937 214.922 248.307 215.16 247.663 215.16C246.837 215.16 246.221 214.684 246.221 213.956C246.221 213.214 246.837 212.738 247.663 212.738C248.307 212.738 248.937 212.976 249.273 213.438V214.46ZM252.649 216H256.485C258.109 216 258.837 215.216 258.837 214.166C258.837 213.368 258.291 212.682 257.563 212.514C258.179 212.332 258.697 211.786 258.697 210.974C258.697 210.008 257.983 209.238 256.443 209.238H252.649V216ZM257.199 211.226C257.199 211.604 256.919 211.898 256.443 211.898H254.119V210.526H256.443C256.919 210.526 257.199 210.806 257.199 211.226ZM257.325 213.956C257.325 214.432 257.003 214.712 256.485 214.712H254.119V213.186H256.485C257.031 213.186 257.325 213.55 257.325 213.956ZM264.449 216H265.919V211.52C265.919 209.7 264.603 209.07 263.105 209.07C262.027 209.07 261.047 209.42 260.263 210.162L260.865 211.184C261.453 210.61 262.111 210.33 262.867 210.33C263.805 210.33 264.449 210.806 264.449 211.59V212.598C263.959 212.024 263.175 211.73 262.265 211.73C261.159 211.73 259.913 212.374 259.913 213.928C259.913 215.426 261.159 216.168 262.265 216.168C263.161 216.168 263.945 215.846 264.449 215.272V216ZM264.449 214.46C264.113 214.922 263.483 215.16 262.839 215.16C262.013 215.16 261.397 214.684 261.397 213.956C261.397 213.214 262.013 212.738 262.839 212.738C263.483 212.738 264.113 212.976 264.449 213.438V214.46ZM267.125 214.712V216.168C268.609 216.168 269.673 215.16 269.925 210.988L269.953 210.526H272.403V216H273.873V209.238H268.651L268.539 210.918C268.343 213.858 267.839 214.712 267.125 214.712ZM277.252 209.238H275.782V216H279.576C281.144 216 281.886 214.866 281.886 213.774C281.886 212.668 281.172 211.548 279.576 211.548H277.252V209.238ZM277.252 212.836H279.436C280.094 212.836 280.388 213.256 280.388 213.774C280.388 214.278 280.094 214.712 279.436 214.712H277.252V212.836ZM283.343 216H284.813V213.186H287.921V216H289.391V209.238H287.921V211.898H284.813V209.238H283.343V216ZM294.352 216.168C296.522 216.168 297.838 214.558 297.838 212.612C297.838 210.68 296.522 209.07 294.352 209.07C292.21 209.07 290.88 210.68 290.88 212.612C290.88 214.558 292.21 216.168 294.352 216.168ZM294.352 214.866C293.106 214.866 292.406 213.816 292.406 212.612C292.406 211.422 293.106 210.372 294.352 210.372C295.612 210.372 296.312 211.422 296.312 212.612C296.312 213.816 295.612 214.866 294.352 214.866ZM304.449 210.526V209.238H299.325V216H300.795V210.526H304.449ZM308.434 216.168C310.604 216.168 311.92 214.558 311.92 212.612C311.92 210.68 310.604 209.07 308.434 209.07C306.292 209.07 304.962 210.68 304.962 212.612C304.962 214.558 306.292 216.168 308.434 216.168ZM308.434 214.866C307.188 214.866 306.488 213.816 306.488 212.612C306.488 211.422 307.188 210.372 308.434 210.372C309.694 210.372 310.394 211.422 310.394 212.612C310.394 213.816 309.694 214.866 308.434 214.866ZM321.581 216H323.051V209.238H317.003V216H318.473V210.526H321.581V216ZM324.89 217.33L324.666 218.646C324.876 218.702 325.282 218.744 325.492 218.744C326.542 218.73 327.354 218.366 327.816 217.218L331.078 209.238H329.496L327.522 214.306L325.548 209.238H323.98L326.752 216.084L326.416 216.854C326.22 217.302 325.912 217.442 325.45 217.442C325.282 217.442 325.044 217.4 324.89 217.33ZM332.001 216H333.471V213.186H336.579V216H338.049V209.238H336.579V211.898H333.471V209.238H332.001V216ZM344.438 216H346.286L343.416 212.304L346.23 209.238H344.41L341.428 212.5V209.238H339.958V216H341.428V214.18L342.366 213.214L344.438 216ZM348.559 216H350.029V210.526H351.975V209.238H346.627V210.526H348.559V216ZM353.109 217.33L352.885 218.646C353.095 218.702 353.501 218.744 353.711 218.744C354.761 218.73 355.573 218.366 356.035 217.218L359.297 209.238H357.715L355.741 214.306L353.767 209.238H352.199L354.971 216.084L354.635 216.854C354.439 217.302 354.131 217.442 353.669 217.442C353.501 217.442 353.263 217.4 353.109 217.33ZM81.53 236H83V229.238H76.952V236H78.422V230.526H81.53V236ZM85.637 228.118C86.141 228.118 86.547 227.712 86.547 227.208C86.547 226.704 86.141 226.298 85.637 226.298C85.147 226.298 84.727 226.704 84.727 227.208C84.727 227.712 85.147 228.118 85.637 228.118ZM84.909 236H86.379V229.238H84.909V236ZM87.586 234.712V237.722H88.874V236H93.788V237.722H95.076V234.712H94.334V229.238H89.196L89.07 230.834C88.888 233.116 88.58 234.096 88.202 234.712H87.586ZM90.372 231.226L90.414 230.526H92.864V234.712H89.602C89.882 234.292 90.246 233.424 90.372 231.226ZM96.284 236H100.12C101.744 236 102.472 235.216 102.472 234.166C102.472 233.368 101.926 232.682 101.198 232.514C101.814 232.332 102.332 231.786 102.332 230.974C102.332 230.008 101.618 229.238 100.078 229.238H96.284V236ZM100.834 231.226C100.834 231.604 100.554 231.898 100.078 231.898H97.754V230.526H100.078C100.554 230.526 100.834 230.806 100.834 231.226ZM100.96 233.956C100.96 234.432 100.638 234.712 100.12 234.712H97.754V233.186H100.12C100.666 233.186 100.96 233.55 100.96 233.956ZM103.954 236H105.368L108.532 231.324V236H110.002V229.238H108.532L105.424 233.788V229.238H103.954V236ZM121.081 229.238H119.611V234.712H117.231V229.238H115.761V234.712H113.381V229.238H111.911V236H120.675V237.722H121.963V234.712H121.081V229.238ZM122.743 232.612C122.743 234.754 124.255 236.168 126.285 236.168C127.363 236.168 128.357 235.832 129.029 235.188L128.357 234.222C127.881 234.698 127.097 234.964 126.439 234.964C125.165 234.964 124.395 234.124 124.283 233.102H129.505V232.752C129.505 230.624 128.203 229.07 126.173 229.07C124.171 229.07 122.743 230.652 122.743 232.612ZM126.173 230.274C127.503 230.274 128.049 231.268 128.077 232.066H124.269C124.339 231.24 124.913 230.274 126.173 230.274ZM130.956 236H132.426V233.186H135.534V236H137.004V229.238H135.534V231.898H132.426V229.238H130.956V236ZM138.913 236H140.383V233.186H143.491V236H144.961V229.238H143.491V231.898H140.383V229.238H138.913V236ZM146.632 236H148.312L149.796 233.55H151.35V236H152.82V229.238H148.956C147.5 229.238 146.716 230.232 146.716 231.394C146.716 232.556 147.416 233.284 148.298 233.48L146.632 236ZM151.35 232.262H149.138C148.55 232.262 148.214 231.898 148.214 231.394C148.214 230.89 148.578 230.526 149.138 230.526H151.35V232.262ZM162.793 236H164.641L161.771 232.304L164.585 229.238H162.765L159.783 232.5V229.238H158.313V236H159.783V234.18L160.721 233.214L162.793 236ZM165.682 236H169.518C171.142 236 171.87 235.216 171.87 234.166C171.87 233.368 171.324 232.682 170.596 232.514C171.212 232.332 171.73 231.786 171.73 230.974C171.73 230.008 171.016 229.238 169.476 229.238H165.682V236ZM170.232 231.226C170.232 231.604 169.952 231.898 169.476 231.898H167.152V230.526H169.476C169.952 230.526 170.232 230.806 170.232 231.226ZM170.358 233.956C170.358 234.432 170.036 234.712 169.518 234.712H167.152V233.186H169.518C170.064 233.186 170.358 233.55 170.358 233.956ZM177.482 236H178.952V231.52C178.952 229.7 177.636 229.07 176.138 229.07C175.06 229.07 174.08 229.42 173.296 230.162L173.898 231.184C174.486 230.61 175.144 230.33 175.9 230.33C176.838 230.33 177.482 230.806 177.482 231.59V232.598C176.992 232.024 176.208 231.73 175.298 231.73C174.192 231.73 172.946 232.374 172.946 233.928C172.946 235.426 174.192 236.168 175.298 236.168C176.194 236.168 176.978 235.846 177.482 235.272V236ZM177.482 234.46C177.146 234.922 176.516 235.16 175.872 235.16C175.046 235.16 174.43 234.684 174.43 233.956C174.43 233.214 175.046 232.738 175.872 232.738C176.516 232.738 177.146 232.976 177.482 233.438V234.46ZM180.158 234.712V236.168C181.642 236.168 182.706 235.16 182.958 230.988L182.986 230.526H185.436V236H186.906V229.238H181.684L181.572 230.918C181.376 233.858 180.872 234.712 180.158 234.712ZM189.543 228.118C190.047 228.118 190.453 227.712 190.453 227.208C190.453 226.704 190.047 226.298 189.543 226.298C189.053 226.298 188.633 226.704 188.633 227.208C188.633 227.712 189.053 228.118 189.543 228.118ZM188.815 236H190.285V229.238H188.815V236ZM196.77 229.07V226.662H195.3V229.07C193.13 229.21 191.772 230.484 191.772 232.612C191.772 234.74 193.13 236.028 195.3 236.168V238.576H196.77V236.168C198.94 236.028 200.298 234.74 200.298 232.612C200.298 230.484 198.94 229.21 196.77 229.07ZM193.298 232.612C193.298 231.142 194.18 230.372 195.3 230.372V234.866C194.18 234.866 193.298 234.096 193.298 232.612ZM196.77 234.866V230.372C197.89 230.372 198.772 231.142 198.772 232.612C198.772 234.096 197.89 234.866 196.77 234.866ZM202.504 228.118C203.008 228.118 203.414 227.712 203.414 227.208C203.414 226.704 203.008 226.298 202.504 226.298C202.014 226.298 201.594 226.704 201.594 227.208C201.594 227.712 202.014 228.118 202.504 228.118ZM201.776 236H203.246V229.238H201.776V236ZM209.633 236H211.481L208.611 232.304L211.425 229.238H209.605L206.623 232.5V229.238H205.153V236H206.623V234.18L207.561 233.214L209.633 236ZM216.652 236H218.122V231.52C218.122 229.7 216.806 229.07 215.308 229.07C214.23 229.07 213.25 229.42 212.466 230.162L213.068 231.184C213.656 230.61 214.314 230.33 215.07 230.33C216.008 230.33 216.652 230.806 216.652 231.59V232.598C216.162 232.024 215.378 231.73 214.468 231.73C213.362 231.73 212.116 232.374 212.116 233.928C212.116 235.426 213.362 236.168 214.468 236.168C215.364 236.168 216.148 235.846 216.652 235.272V236ZM216.652 234.46C216.316 234.922 215.686 235.16 215.042 235.16C214.216 235.16 213.6 234.684 213.6 233.956C213.6 233.214 214.216 232.738 215.042 232.738C215.686 232.738 216.316 232.976 216.652 233.438V234.46ZM225.39 236V237.722H226.678V234.712H225.936V229.238H224.466V234.712H221.498V229.238H220.028V236H225.39ZM228.604 228.118C229.108 228.118 229.514 227.712 229.514 227.208C229.514 226.704 229.108 226.298 228.604 226.298C228.114 226.298 227.694 226.704 227.694 227.208C227.694 227.712 228.114 228.118 228.604 228.118ZM227.876 236H229.346V229.238H227.876V236ZM230.798 228.104C231.246 228.104 231.61 227.74 231.61 227.278C231.61 226.83 231.246 226.466 230.798 226.466C230.336 226.466 229.972 226.83 229.972 227.278C229.972 227.74 230.336 228.104 230.798 228.104ZM233.724 228.104C234.172 228.104 234.55 227.74 234.55 227.278C234.55 226.83 234.172 226.466 233.724 226.466C233.276 226.466 232.898 226.83 232.898 227.278C232.898 227.74 233.276 228.104 233.724 228.104ZM231.526 236H232.996V229.238H231.526V236ZM240.249 238.786L241.159 238.086C240.235 236.364 239.731 234.796 239.731 232.598C239.731 230.4 240.235 228.832 241.159 227.096L240.249 226.41C238.933 228.034 238.135 230.344 238.135 232.598C238.135 234.852 238.933 237.176 240.249 238.786ZM248.752 236H250.222V229.238H248.29L246.302 233.746L244.286 229.238H242.368V236H243.838V231.156L246.008 236H246.596L248.752 231.156V236ZM251.906 235.174C251.906 235.706 252.354 236.154 252.886 236.154C253.418 236.154 253.866 235.706 253.866 235.174C253.866 234.642 253.418 234.194 252.886 234.194C252.354 234.194 251.906 234.642 251.906 235.174ZM259.199 236H260.837V226.662H259.199V236ZM262.78 236H266.616C268.24 236 268.968 235.216 268.968 234.166C268.968 233.368 268.422 232.682 267.694 232.514C268.31 232.332 268.828 231.786 268.828 230.974C268.828 230.008 268.114 229.238 266.574 229.238H262.78V236ZM267.33 231.226C267.33 231.604 267.05 231.898 266.574 231.898H264.25V230.526H266.574C267.05 230.526 267.33 230.806 267.33 231.226ZM267.456 233.956C267.456 234.432 267.134 234.712 266.616 234.712H264.25V233.186H266.616C267.162 233.186 267.456 233.55 267.456 233.956ZM274.58 236H276.05V231.52C276.05 229.7 274.734 229.07 273.236 229.07C272.158 229.07 271.178 229.42 270.394 230.162L270.996 231.184C271.584 230.61 272.242 230.33 272.998 230.33C273.936 230.33 274.58 230.806 274.58 231.59V232.598C274.09 232.024 273.306 231.73 272.396 231.73C271.29 231.73 270.044 232.374 270.044 233.928C270.044 235.426 271.29 236.168 272.396 236.168C273.292 236.168 274.076 235.846 274.58 235.272V236ZM274.58 234.46C274.244 234.922 273.614 235.16 272.97 235.16C272.144 235.16 271.528 234.684 271.528 233.956C271.528 233.214 272.144 232.738 272.97 232.738C273.614 232.738 274.244 232.976 274.58 233.438V234.46ZM277.956 236H279.426V233.186H282.534V236H284.004V229.238H282.534V231.898H279.426V229.238H277.956V236ZM288.965 236.168C291.135 236.168 292.451 234.558 292.451 232.612C292.451 230.68 291.135 229.07 288.965 229.07C286.823 229.07 285.493 230.68 285.493 232.612C285.493 234.558 286.823 236.168 288.965 236.168ZM288.965 234.866C287.719 234.866 287.019 233.816 287.019 232.612C287.019 231.422 287.719 230.372 288.965 230.372C290.225 230.372 290.925 231.422 290.925 232.612C290.925 233.816 290.225 234.866 288.965 234.866ZM293.406 233.242H296.766V231.982H293.406V233.242ZM311.867 231.338C311.867 229.21 310.201 227.824 307.429 227.6V226.662H305.791V227.6C303.019 227.824 301.353 229.224 301.353 231.338C301.353 233.466 303.019 234.852 305.791 235.076V236H307.429V235.076C310.201 234.852 311.867 233.48 311.867 231.338ZM303.033 231.338C303.033 230.106 304.013 229.266 305.791 229.07V233.606C304.013 233.41 303.033 232.57 303.033 231.338ZM307.429 233.606V229.07C309.207 229.266 310.187 230.106 310.187 231.338C310.187 232.57 309.207 233.41 307.429 233.606ZM314.877 238.576V235.062C315.423 235.79 316.193 236.168 317.047 236.168C318.797 236.168 320.043 234.838 320.043 232.612C320.043 230.386 318.797 229.07 317.047 229.07C316.165 229.07 315.381 229.49 314.877 230.162V229.238H313.407V238.576H314.877ZM318.517 232.612C318.517 233.928 317.775 234.866 316.613 234.866C315.927 234.866 315.199 234.446 314.877 233.956V231.282C315.199 230.778 315.927 230.372 316.613 230.372C317.775 230.372 318.517 231.31 318.517 232.612ZM325.658 236H327.128V231.52C327.128 229.7 325.812 229.07 324.314 229.07C323.236 229.07 322.256 229.42 321.472 230.162L322.074 231.184C322.662 230.61 323.32 230.33 324.076 230.33C325.014 230.33 325.658 230.806 325.658 231.59V232.598C325.168 232.024 324.384 231.73 323.474 231.73C322.368 231.73 321.122 232.374 321.122 233.928C321.122 235.426 322.368 236.168 323.474 236.168C324.37 236.168 325.154 235.846 325.658 235.272V236ZM325.658 234.46C325.322 234.922 324.692 235.16 324.048 235.16C323.222 235.16 322.606 234.684 322.606 233.956C322.606 233.214 323.222 232.738 324.048 232.738C324.692 232.738 325.322 232.976 325.658 233.438V234.46ZM329.034 236H330.504V233.186H333.612V236H335.082V229.238H333.612V231.898H330.504V229.238H329.034V236ZM341.471 236H343.319L340.449 232.304L343.263 229.238H341.443L338.461 232.5V229.238H336.991V236H338.461V234.18L339.399 233.214L341.471 236ZM345.088 228.118C345.592 228.118 345.998 227.712 345.998 227.208C345.998 226.704 345.592 226.298 345.088 226.298C344.598 226.298 344.178 226.704 344.178 227.208C344.178 227.712 344.598 228.118 345.088 228.118ZM344.36 236H345.83V229.238H344.36V236ZM347.737 236H351.573C353.197 236 353.925 235.216 353.925 234.166C353.925 233.368 353.379 232.682 352.651 232.514C353.267 232.332 353.785 231.786 353.785 230.974C353.785 230.008 353.071 229.238 351.531 229.238H347.737V236ZM352.287 231.226C352.287 231.604 352.007 231.898 351.531 231.898H349.207V230.526H351.531C352.007 230.526 352.287 230.806 352.287 231.226ZM352.413 233.956C352.413 234.432 352.091 234.712 351.573 234.712H349.207V233.186H351.573C352.119 233.186 352.413 233.55 352.413 233.956ZM354.987 232.612C354.987 234.67 356.429 236.168 358.487 236.168C359.803 236.168 360.601 235.608 361.077 234.964L360.111 234.068C359.733 234.586 359.215 234.866 358.557 234.866C357.325 234.866 356.513 233.928 356.513 232.612C356.513 231.296 357.325 230.372 358.557 230.372C359.215 230.372 359.733 230.638 360.111 231.17L361.077 230.274C360.601 229.63 359.803 229.07 358.487 229.07C356.429 229.07 354.987 230.568 354.987 232.612ZM363.836 229.238H362.366V236H366.16C367.728 236 368.47 234.866 368.47 233.774C368.47 232.668 367.756 231.548 366.16 231.548H363.836V229.238ZM363.836 232.836H366.02C366.678 232.836 366.972 233.256 366.972 233.774C366.972 234.278 366.678 234.712 366.02 234.712H363.836V232.836ZM374.407 236H376.255L373.385 232.304L376.199 229.238H374.379L371.397 232.5V229.238H369.927V236H371.397V234.18L372.335 233.214L374.407 236ZM377.8 237.862C378.57 237.316 379.116 236.434 379.116 235.468C379.116 234.656 378.598 234.194 378.024 234.194C377.506 234.194 377.072 234.628 377.072 235.16C377.072 235.678 377.436 236.042 377.912 236.042C377.996 236.042 378.108 236.014 378.15 236C378.052 236.476 377.59 237.05 377.142 237.316L377.8 237.862ZM76.952 256H80.788C82.412 256 83.14 255.216 83.14 254.166C83.14 253.368 82.594 252.682 81.866 252.514C82.482 252.332 83 251.786 83 250.974C83 250.008 82.286 249.238 80.746 249.238H76.952V256ZM81.502 251.226C81.502 251.604 81.222 251.898 80.746 251.898H78.422V250.526H80.746C81.222 250.526 81.502 250.806 81.502 251.226ZM81.628 253.956C81.628 254.432 81.306 254.712 80.788 254.712H78.422V253.186H80.788C81.334 253.186 81.628 253.55 81.628 253.956ZM84.5519 257.33L84.3279 258.646C84.5379 258.702 84.9439 258.744 85.1539 258.744C86.2039 258.73 87.0159 258.366 87.4779 257.218L90.7399 249.238H89.1579L87.1839 254.306L85.2099 249.238H83.6419L86.4139 256.084L86.0779 256.854C85.8819 257.302 85.5739 257.442 85.1119 257.442C84.9439 257.442 84.7059 257.4 84.5519 257.33ZM90.4024 254.712V256.168C91.8864 256.168 92.9504 255.16 93.2024 250.988L93.2304 250.526H95.6804V256H97.1504V249.238H91.9284L91.8164 250.918C91.6204 253.858 91.1164 254.712 90.4024 254.712ZM98.8354 255.174C98.8354 255.706 99.2834 256.154 99.8154 256.154C100.347 256.154 100.795 255.706 100.795 255.174C100.795 254.642 100.347 254.194 99.8154 254.194C99.2834 254.194 98.8354 254.642 98.8354 255.174ZM105.527 254.558V256.168C107.333 256.168 108.719 255.538 109.195 249.658L109.321 248.104H112.625V256H114.263V246.662H107.921L107.683 249.644C107.347 253.872 106.535 254.558 105.527 254.558ZM115.784 252.612C115.784 254.754 117.296 256.168 119.326 256.168C120.404 256.168 121.398 255.832 122.07 255.188L121.398 254.222C120.922 254.698 120.138 254.964 119.48 254.964C118.206 254.964 117.436 254.124 117.324 253.102H122.546V252.752C122.546 250.624 121.244 249.07 119.214 249.07C117.212 249.07 115.784 250.652 115.784 252.612ZM119.214 250.274C120.544 250.274 121.09 251.268 121.118 252.066H117.31C117.38 251.24 117.954 250.274 119.214 250.274ZM123.577 252.612C123.577 254.67 125.019 256.168 127.077 256.168C128.393 256.168 129.191 255.608 129.667 254.964L128.701 254.068C128.323 254.586 127.805 254.866 127.147 254.866C125.915 254.866 125.103 253.928 125.103 252.612C125.103 251.296 125.915 250.372 127.147 250.372C127.805 250.372 128.323 250.638 128.701 251.17L129.667 250.274C129.191 249.63 128.393 249.07 127.077 249.07C125.019 249.07 123.577 250.568 123.577 252.612ZM131.684 248.118C132.188 248.118 132.594 247.712 132.594 247.208C132.594 246.704 132.188 246.298 131.684 246.298C131.194 246.298 130.774 246.704 130.774 247.208C130.774 247.712 131.194 248.118 131.684 248.118ZM130.956 256H132.426V249.238H130.956V256ZM144.019 246.662L141.667 252.094L138.867 246.662H136.991L140.799 253.606C140.365 254.404 140.001 254.712 139.301 254.712C139.049 254.712 138.811 254.67 138.629 254.572L138.209 255.958C138.531 256.084 138.993 256.168 139.371 256.168C140.967 256.168 141.709 255.398 142.255 254.25L145.867 246.662H144.019ZM150.489 256H152.337L149.467 252.304L152.281 249.238H150.461L147.479 252.5V249.238H146.009V256H147.479V254.18L148.417 253.214L150.489 256ZM154.848 258.576V255.062C155.394 255.79 156.164 256.168 157.018 256.168C158.768 256.168 160.014 254.838 160.014 252.612C160.014 250.386 158.768 249.07 157.018 249.07C156.136 249.07 155.352 249.49 154.848 250.162V249.238H153.378V258.576H154.848ZM158.488 252.612C158.488 253.928 157.746 254.866 156.584 254.866C155.898 254.866 155.17 254.446 154.848 253.956V251.282C155.17 250.778 155.898 250.372 156.584 250.372C157.746 250.372 158.488 251.31 158.488 252.612ZM165.629 256H167.099V251.52C167.099 249.7 165.783 249.07 164.285 249.07C163.207 249.07 162.227 249.42 161.443 250.162L162.045 251.184C162.633 250.61 163.291 250.33 164.047 250.33C164.985 250.33 165.629 250.806 165.629 251.59V252.598C165.139 252.024 164.355 251.73 163.445 251.73C162.339 251.73 161.093 252.374 161.093 253.928C161.093 255.426 162.339 256.168 163.445 256.168C164.341 256.168 165.125 255.846 165.629 255.272V256ZM165.629 254.46C165.293 254.922 164.663 255.16 164.019 255.16C163.193 255.16 162.577 254.684 162.577 253.956C162.577 253.214 163.193 252.738 164.019 252.738C164.663 252.738 165.293 252.976 165.629 253.438V254.46ZM168.277 248.104C168.725 248.104 169.089 247.74 169.089 247.278C169.089 246.83 168.725 246.466 168.277 246.466C167.815 246.466 167.451 246.83 167.451 247.278C167.451 247.74 167.815 248.104 168.277 248.104ZM171.203 248.104C171.651 248.104 172.029 247.74 172.029 247.278C172.029 246.83 171.651 246.466 171.203 246.466C170.755 246.466 170.377 246.83 170.377 247.278C170.377 247.74 170.755 248.104 171.203 248.104ZM169.005 256H170.475V249.238H169.005V256ZM172.382 256H173.852V253.186H176.96V256H178.43V249.238H176.96V251.898H173.852V249.238H172.382V256ZM184.819 256H186.667L183.797 252.304L186.611 249.238H184.791L181.809 252.5V249.238H180.339V256H181.809V254.18L182.747 253.214L184.819 256ZM187.708 256H189.122L192.286 251.324V256H193.756V249.238H192.286L189.178 253.788V249.238H187.708V256ZM196.169 257.862C196.939 257.316 197.485 256.434 197.485 255.468C197.485 254.656 196.967 254.194 196.393 254.194C195.875 254.194 195.441 254.628 195.441 255.16C195.441 255.678 195.805 256.042 196.281 256.042C196.365 256.042 196.477 256.014 196.519 256C196.421 256.476 195.959 257.05 195.511 257.316L196.169 257.862ZM206.584 256H208.222V253.886H209.468V252.444H208.222V246.662H205.968L202.132 252.57V253.886H206.584V256ZM206.584 248.132V252.444H203.742L206.584 248.132ZM211.541 252.598C211.541 254.796 211.037 256.364 210.099 258.086L211.009 258.786C212.339 257.176 213.137 254.852 213.137 252.598C213.137 250.344 212.339 248.034 211.009 246.41L210.099 247.096C211.037 248.832 211.541 250.4 211.541 252.598ZM215.186 257.862C215.956 257.316 216.502 256.434 216.502 255.468C216.502 254.656 215.984 254.194 215.41 254.194C214.892 254.194 214.458 254.628 214.458 255.16C214.458 255.678 214.822 256.042 215.298 256.042C215.382 256.042 215.494 256.014 215.536 256C215.438 256.476 214.976 257.05 214.528 257.316L215.186 257.862ZM226.19 256H228.038L225.168 252.304L227.982 249.238H226.162L223.18 252.5V249.238H221.71V256H223.18V254.18L224.118 253.214L226.19 256ZM231.775 256.168C233.945 256.168 235.261 254.558 235.261 252.612C235.261 250.68 233.945 249.07 231.775 249.07C229.633 249.07 228.303 250.68 228.303 252.612C228.303 254.558 229.633 256.168 231.775 256.168ZM231.775 254.866C230.529 254.866 229.829 253.816 229.829 252.612C229.829 251.422 230.529 250.372 231.775 250.372C233.035 250.372 233.735 251.422 233.735 252.612C233.735 253.816 233.035 254.866 231.775 254.866ZM235.912 254.712V257.722H237.2V256H242.114V257.722H243.402V254.712H242.66V249.238H237.522L237.396 250.834C237.214 253.116 236.906 254.096 236.528 254.712H235.912ZM238.698 251.226L238.74 250.526H241.19V254.712H237.928C238.208 254.292 238.572 253.424 238.698 251.226ZM247.506 254.558V257.722H248.948V256H255.668V257.722H257.11V254.558H255.962V246.662H249.9L249.69 249.21C249.424 252.43 248.752 253.984 248.234 254.558H247.506ZM251.146 249.294L251.23 248.104H254.324V254.558H249.886C250.404 253.984 250.922 252.486 251.146 249.294ZM263.937 256H265.953L261.879 251.072L265.673 246.662H263.643L259.989 251.114V246.662H258.351V256H259.989V253.018L260.801 252.066L263.937 256ZM270.222 251.338C270.222 253.69 271.342 256.168 273.96 256.168C276.578 256.168 277.698 253.69 277.698 251.338C277.698 248.986 276.578 246.522 273.96 246.522C271.342 246.522 270.222 248.986 270.222 251.338ZM276.032 251.338C276.032 253.116 275.486 254.712 273.96 254.712C272.434 254.712 271.888 253.116 271.888 251.338C271.888 249.56 272.434 247.978 273.96 247.978C275.486 247.978 276.032 249.56 276.032 251.338ZM278.975 256H285.737V254.558H281.593C284.099 252.668 285.681 251.128 285.681 249.406C285.681 247.544 284.099 246.522 282.293 246.522C280.991 246.522 279.675 247.026 278.849 248.02L279.801 249.098C280.389 248.426 281.229 247.978 282.321 247.978C283.175 247.978 284.015 248.426 284.015 249.406C284.015 250.75 282.601 251.968 278.975 254.712V256ZM289.29 256H290.928V246.662H289.5L286.812 249.378L287.764 250.372L289.29 248.79V256ZM292.648 250.12C292.648 250.652 293.096 251.1 293.628 251.1C294.16 251.1 294.608 250.652 294.608 250.12C294.608 249.588 294.16 249.14 293.628 249.14C293.096 249.14 292.648 249.588 292.648 250.12ZM292.648 255.174C292.648 255.706 293.096 256.154 293.628 256.154C294.16 256.154 294.608 255.706 294.608 255.174C294.608 254.642 294.16 254.194 293.628 254.194C293.096 254.194 292.648 254.642 292.648 255.174ZM296.052 256H302.814V254.558H298.67C301.176 252.668 302.758 251.128 302.758 249.406C302.758 247.544 301.176 246.522 299.37 246.522C298.068 246.522 296.752 247.026 295.926 248.02L296.878 249.098C297.466 248.426 298.306 247.978 299.398 247.978C300.252 247.978 301.092 248.426 301.092 249.406C301.092 250.75 299.678 251.968 296.052 254.712V256ZM304.252 251.338C304.252 253.69 305.372 256.168 307.99 256.168C310.608 256.168 311.728 253.69 311.728 251.338C311.728 248.986 310.608 246.522 307.99 246.522C305.372 246.522 304.252 248.986 304.252 251.338ZM310.062 251.338C310.062 253.116 309.516 254.712 307.99 254.712C306.464 254.712 305.918 253.116 305.918 251.338C305.918 249.56 306.464 247.978 307.99 247.978C309.516 247.978 310.062 249.56 310.062 251.338ZM314.993 256H316.631V246.662H315.203L312.515 249.378L313.467 250.372L314.993 248.79V256ZM318.407 254.726C319.163 255.622 320.269 256.168 321.879 256.168C323.965 256.168 325.435 254.95 325.435 253.004C325.435 251.1 324.021 249.994 322.453 249.994C321.557 249.994 320.787 250.358 320.339 250.806V248.104H324.819V246.662H318.701V251.884L319.863 252.22C320.451 251.66 321.109 251.408 321.907 251.408C323.055 251.408 323.783 252.066 323.783 253.074C323.783 253.984 323.041 254.712 321.865 254.712C320.815 254.712 319.975 254.32 319.345 253.606L318.407 254.726ZM330.033 253.242H333.393V251.982H330.033V253.242ZM76.574 271.338C76.574 273.69 77.694 276.168 80.312 276.168C82.93 276.168 84.05 273.69 84.05 271.338C84.05 268.986 82.93 266.522 80.312 266.522C77.694 266.522 76.574 268.986 76.574 271.338ZM82.384 271.338C82.384 273.116 81.838 274.712 80.312 274.712C78.786 274.712 78.24 273.116 78.24 271.338C78.24 269.56 78.786 267.978 80.312 267.978C81.838 267.978 82.384 269.56 82.384 271.338ZM85.663 275.118C86.293 275.748 87.189 276.154 88.337 276.154C91.039 276.154 92.453 274.026 92.453 271.338C92.453 268.734 91.347 266.508 88.603 266.508C86.517 266.508 85.159 267.922 85.159 269.644C85.159 271.632 86.615 272.668 88.295 272.668C89.387 272.668 90.367 271.982 90.801 271.352V271.632C90.801 273.158 90.031 274.698 88.337 274.698C87.455 274.698 86.909 274.39 86.419 273.886L85.663 275.118ZM90.773 270.162C90.311 270.834 89.527 271.254 88.729 271.254C87.721 271.254 86.825 270.736 86.825 269.588C86.825 268.846 87.469 267.964 88.687 267.964C90.129 267.964 90.689 269.154 90.773 270.162ZM93.3712 274.656C94.0012 275.496 95.2332 276.168 96.8992 276.168C99.0552 276.168 100.413 275.034 100.413 273.452C100.413 272.01 99.1532 271.268 98.2432 271.184C99.2092 271.016 100.273 270.288 100.273 269.042C100.273 267.474 98.9152 266.522 96.8992 266.522C95.3452 266.522 94.2112 267.152 93.4972 267.992L94.3372 269.014C95.0092 268.342 95.7932 267.978 96.7452 267.978C97.7952 267.978 98.6352 268.426 98.6352 269.294C98.6352 270.148 97.8092 270.526 96.7172 270.526C96.3532 270.526 95.8072 270.526 95.6392 270.512V271.982C95.7792 271.968 96.3252 271.968 96.7172 271.968C98.0472 271.968 98.7892 272.36 98.7892 273.284C98.7892 274.152 98.0752 274.712 96.8432 274.712C95.8492 274.712 94.8552 274.278 94.2532 273.578L93.3712 274.656ZM103.762 276H105.4V266.662H103.972L101.284 269.378L102.236 270.372L103.762 268.79V276ZM106.967 271.338C106.967 273.69 108.087 276.168 110.705 276.168C113.323 276.168 114.443 273.69 114.443 271.338C114.443 268.986 113.323 266.522 110.705 266.522C108.087 266.522 106.967 268.986 106.967 271.338ZM112.777 271.338C112.777 273.116 112.231 274.712 110.705 274.712C109.179 274.712 108.633 273.116 108.633 271.338C108.633 269.56 109.179 267.978 110.705 267.978C112.231 267.978 112.777 269.56 112.777 271.338ZM115.594 271.338C115.594 273.69 116.714 276.168 119.332 276.168C121.95 276.168 123.07 273.69 123.07 271.338C123.07 268.986 121.95 266.522 119.332 266.522C116.714 266.522 115.594 268.986 115.594 271.338ZM121.404 271.338C121.404 273.116 120.858 274.712 119.332 274.712C117.806 274.712 117.26 273.116 117.26 271.338C117.26 269.56 117.806 267.978 119.332 267.978C120.858 267.978 121.404 269.56 121.404 271.338ZM124.22 271.338C124.22 273.69 125.34 276.168 127.958 276.168C130.576 276.168 131.696 273.69 131.696 271.338C131.696 268.986 130.576 266.522 127.958 266.522C125.34 266.522 124.22 268.986 124.22 271.338ZM130.03 271.338C130.03 273.116 129.484 274.712 127.958 274.712C126.432 274.712 125.886 273.116 125.886 271.338C125.886 269.56 126.432 267.978 127.958 267.978C129.484 267.978 130.03 269.56 130.03 271.338ZM132.847 271.338C132.847 273.69 133.967 276.168 136.585 276.168C139.203 276.168 140.323 273.69 140.323 271.338C140.323 268.986 139.203 266.522 136.585 266.522C133.967 266.522 132.847 268.986 132.847 271.338ZM138.657 271.338C138.657 273.116 138.111 274.712 136.585 274.712C135.059 274.712 134.513 273.116 134.513 271.338C134.513 269.56 135.059 267.978 136.585 267.978C138.111 267.978 138.657 269.56 138.657 271.338ZM141.32 273.242H144.68V271.982H141.32V273.242ZM145.882 274.726C146.638 275.622 147.744 276.168 149.354 276.168C151.44 276.168 152.91 274.95 152.91 273.004C152.91 271.1 151.496 269.994 149.928 269.994C149.032 269.994 148.262 270.358 147.814 270.806V268.104H152.294V266.662H146.176V271.884L147.338 272.22C147.926 271.66 148.584 271.408 149.382 271.408C150.53 271.408 151.258 272.066 151.258 273.074C151.258 273.984 150.516 274.712 149.34 274.712C148.29 274.712 147.45 274.32 146.82 273.606L145.882 274.726Z" fill="#0A0A0B"/>
<path d="M408 126C408 128.209 409.791 130 412 130H420C422.209 130 424 128.209 424 126V118C424 115.791 422.209 114 420 114H412C409.791 114 408 115.791 408 118V126Z" fill="#F7F7F8"/>
<path d="M412 129H420V131H412V129ZM423 126V118H425V126H423ZM420 115H412V113H420V115ZM409 118V126H407V118H409ZM412 115C410.343 115 409 116.343 409 118H407C407 115.239 409.239 113 412 113V115ZM423 118C423 116.343 421.657 115 420 115V113C422.761 113 425 115.239 425 118H423ZM420 129C421.657 129 423 127.657 423 126H425C425 128.761 422.761 131 420 131V129ZM412 131C409.239 131 407 128.761 407 126H409C409 127.657 410.343 129 412 129V131Z" fill="#D4D4D8"/>
</g>
</g>
<path d="M60 27H420V19H60V27ZM436 43V270H444V43H436ZM420 286H60V294H420V286ZM44 270V43H36V270H44ZM60 286C51.1634 286 44 278.837 44 270H36C36 283.255 46.7452 294 60 294V286ZM436 270C436 278.837 428.837 286 420 286V294C433.255 294 444 283.255 444 270H436ZM420 27C428.837 27 436 34.1634 436 43H444C444 29.7452 433.255 19 420 19V27ZM60 19C46.7452 19 36 29.7452 36 43H44C44 34.1634 51.1634 27 60 27V19Z" fill="white"/>
</g>
<g filter="url(#filter2_d)">
<g filter="url(#filter3_d)">
<path d="M419.705 131.239C419.425 130.879 419.075 130.149 418.465 129.239C418.115 128.739 417.255 127.789 416.995 127.299C416.808 127.001 416.754 126.639 416.845 126.299C417.002 125.653 417.615 125.225 418.275 125.299C418.786 125.402 419.256 125.652 419.625 126.019C419.884 126.262 420.121 126.526 420.335 126.809C420.495 127.009 420.535 127.089 420.715 127.319C420.895 127.549 421.015 127.779 420.925 127.439C420.855 126.939 420.735 126.099 420.565 125.349C420.435 124.779 420.405 124.689 420.285 124.259C420.165 123.829 420.095 123.469 419.965 122.979C419.847 122.497 419.753 122.01 419.685 121.519C419.559 120.891 419.651 120.238 419.945 119.669C420.295 119.34 420.807 119.254 421.245 119.449C421.686 119.774 422.015 120.229 422.185 120.749C422.447 121.389 422.622 122.062 422.705 122.749C422.865 123.749 423.175 125.209 423.185 125.509C423.185 125.139 423.115 124.359 423.185 124.009C423.255 123.644 423.508 123.341 423.855 123.209C424.153 123.118 424.468 123.097 424.775 123.149C425.085 123.214 425.36 123.392 425.545 123.649C425.777 124.232 425.906 124.852 425.925 125.479C425.952 124.929 426.046 124.385 426.205 123.859C426.373 123.623 426.617 123.454 426.895 123.379C427.226 123.318 427.565 123.318 427.895 123.379C428.167 123.47 428.404 123.64 428.575 123.869C428.787 124.399 428.915 124.959 428.955 125.529C428.955 125.669 429.025 125.139 429.245 124.789C429.36 124.45 429.646 124.197 429.998 124.126C430.349 124.055 430.711 124.177 430.948 124.446C431.184 124.715 431.26 125.09 431.145 125.429C431.145 126.079 431.145 126.049 431.145 126.489C431.145 126.929 431.145 127.319 431.145 127.689C431.109 128.274 431.029 128.856 430.905 129.429C430.731 129.936 430.489 130.417 430.185 130.859C429.7 131.399 429.299 132.009 428.995 132.669C428.92 132.997 428.887 133.333 428.895 133.669C428.894 133.98 428.935 134.289 429.015 134.589C428.607 134.632 428.194 134.632 427.785 134.589C427.395 134.529 426.915 133.749 426.785 133.509C426.721 133.38 426.589 133.299 426.445 133.299C426.301 133.299 426.17 133.38 426.105 133.509C425.885 133.889 425.395 134.579 425.055 134.619C424.385 134.699 423.005 134.619 421.915 134.619C421.915 134.619 422.095 133.619 421.685 133.259C421.275 132.899 420.855 132.479 420.545 132.199L419.705 131.239Z" fill="white"/>
<path fill-rule="evenodd" clip-rule="evenodd" d="M419.705 131.239C419.425 130.879 419.075 130.149 418.465 129.239C418.115 128.739 417.255 127.789 416.995 127.299C416.808 127.001 416.754 126.639 416.845 126.299C417.002 125.653 417.615 125.225 418.275 125.299C418.786 125.402 419.256 125.652 419.625 126.019C419.884 126.262 420.121 126.526 420.335 126.809C420.495 127.009 420.535 127.089 420.715 127.319C420.895 127.549 421.015 127.779 420.925 127.439C420.855 126.939 420.735 126.099 420.565 125.349C420.435 124.779 420.405 124.689 420.285 124.259C420.165 123.829 420.095 123.469 419.965 122.979C419.847 122.497 419.753 122.01 419.685 121.519C419.559 120.891 419.651 120.238 419.945 119.669C420.295 119.34 420.807 119.254 421.245 119.449C421.686 119.774 422.015 120.229 422.185 120.749C422.447 121.389 422.622 122.062 422.705 122.749C422.865 123.749 423.175 125.209 423.185 125.509C423.185 125.139 423.115 124.359 423.185 124.009C423.255 123.644 423.508 123.341 423.855 123.209C424.153 123.118 424.468 123.097 424.775 123.149C425.085 123.214 425.36 123.392 425.545 123.649C425.777 124.232 425.906 124.852 425.925 125.479C425.952 124.929 426.046 124.385 426.205 123.859C426.373 123.623 426.617 123.454 426.895 123.379C427.226 123.318 427.565 123.318 427.895 123.379C428.167 123.47 428.404 123.64 428.575 123.869C428.787 124.399 428.915 124.959 428.955 125.529C428.955 125.669 429.025 125.139 429.245 124.789C429.36 124.45 429.646 124.197 429.998 124.126C430.349 124.055 430.711 124.177 430.948 124.446C431.184 124.715 431.26 125.09 431.145 125.429C431.145 126.079 431.145 126.049 431.145 126.489C431.145 126.929 431.145 127.319 431.145 127.689C431.109 128.274 431.029 128.856 430.905 129.429C430.731 129.936 430.489 130.417 430.185 130.859C429.7 131.399 429.299 132.009 428.995 132.669C428.92 132.997 428.887 133.333 428.895 133.669C428.894 133.98 428.935 134.289 429.015 134.589C428.607 134.632 428.194 134.632 427.785 134.589C427.395 134.529 426.915 133.749 426.785 133.509C426.721 133.38 426.589 133.299 426.445 133.299C426.301 133.299 426.17 133.38 426.105 133.509C425.885 133.889 425.395 134.579 425.055 134.619C424.385 134.699 423.005 134.619 421.915 134.619C421.915 134.619 422.095 133.619 421.685 133.259C421.275 132.899 420.855 132.479 420.545 132.199L419.705 131.239Z" stroke="black" stroke-width="0.75" stroke-linecap="round" stroke-linejoin="round"/>
<path d="M428.186 131.785V128.333C428.186 128.126 428.018 127.959 427.811 127.959C427.603 127.959 427.436 128.126 427.436 128.333V131.785C427.436 131.991 427.603 132.159 427.811 132.159C428.018 132.159 428.186 131.991 428.186 131.785Z" fill="black"/>
<path d="M426.206 131.784L426.186 128.33C426.184 128.124 426.015 127.958 425.808 127.959C425.601 127.96 425.434 128.128 425.436 128.334L425.456 131.788C425.457 131.994 425.626 132.16 425.833 132.159C426.04 132.158 426.207 131.99 426.206 131.784Z" fill="black"/>
<path d="M423.436 128.338L423.456 131.784C423.457 131.992 423.626 132.16 423.833 132.159C424.04 132.158 424.207 131.988 424.206 131.78L424.186 128.334C424.184 128.125 424.015 127.958 423.808 127.959C423.601 127.96 423.434 128.13 423.436 128.338Z" fill="black"/>
</g>
</g>
</g>
<g filter="url(#filter4_d)">
<g filter="url(#filter5_d)">
<circle cx="384" cy="20" r="20" fill="white"/>
</g>
<path d="M384 12C380.686 12 378 14.6863 378 18V23C377.438 23.5618 376 25.1901 376 26C376 26.5523 376.448 27 377 27H391C391.552 27 392 26.5523 392 26C392 25.1901 390.562 23.5618 390 23V18C390 14.6863 387.314 12 384 12Z" fill="#0A0A0B"/>
<rect x="383" y="13" width="3" height="2" rx="1" transform="rotate(-90 383 13)" fill="#0A0A0B"/>
<path d="M383 30C382.448 30 382 29.5523 382 29L382 28L386 28L386 29C386 29.5523 385.552 30 385 30L383 30Z" fill="#0A0A0B"/>
<circle cx="388" cy="16" r="8" fill="#FF6666"/>
<path d="M385.032 20H390.828V18.764H387.276C389.424 17.144 390.78 15.824 390.78 14.348C390.78 12.752 389.424 11.876 387.876 11.876C386.76 11.876 385.632 12.308 384.924 13.16L385.74 14.084C386.244 13.508 386.964 13.124 387.9 13.124C388.632 13.124 389.352 13.508 389.352 14.348C389.352 15.5 388.14 16.544 385.032 18.896V20Z" fill="white"/>
</g>
<defs>
<filter id="filter0_d" x="0" y="13" width="480" height="347" filterUnits="userSpaceOnUse" color-interpolation-filters="sRGB">
<feFlood flood-opacity="0" result="BackgroundImageFix"/>
<feColorMatrix in="SourceAlpha" type="matrix" values="0 0 0 0 0 0 0 0 0 0 0 0 0 0 0 0 0 0 127 0" result="hardAlpha"/>
<feOffset dy="30"/>
<feGaussianBlur stdDeviation="20"/>
<feColorMatrix type="matrix" values="0 0 0 0 0.331424 0 0 0 0 0.334594 0 0 0 0 0.345833 0 0 0 0.05 0"/>
<feBlend mode="normal" in2="BackgroundImageFix" result="effect1_dropShadow"/>
<feBlend mode="normal" in="SourceGraphic" in2="effect1_dropShadow" result="shape"/>
</filter>
<filter id="filter1_d" x="40" y="23" width="400" height="267" filterUnits="userSpaceOnUse" color-interpolation-filters="sRGB">
<feFlood flood-opacity="0" result="BackgroundImageFix"/>
<feColorMatrix in="SourceAlpha" type="matrix" values="0 0 0 0 0 0 0 0 0 0 0 0 0 0 0 0 0 0 127 0" result="hardAlpha"/>
<feMorphology radius="40" operator="erode" in="SourceAlpha" result="effect1_dropShadow"/>
<feOffset dy="6"/>
<feGaussianBlur stdDeviation="6"/>
<feColorMatrix type="matrix" values="0 0 0 0 0.0784314 0 0 0 0 0.0784314 0 0 0 0 0.145098 0 0 0 0.16 0"/>
<feBlend mode="multiply" in2="BackgroundImageFix" result="effect1_dropShadow"/>
<feBlend mode="normal" in="SourceGraphic" in2="effect1_dropShadow" result="shape"/>
</filter>
<filter id="filter2_d" x="410" y="115" width="28" height="28" filterUnits="userSpaceOnUse" color-interpolation-filters="sRGB">
<feFlood flood-opacity="0" result="BackgroundImageFix"/>
<feColorMatrix in="SourceAlpha" type="matrix" values="0 0 0 0 0 0 0 0 0 0 0 0 0 0 0 0 0 0 127 0" result="hardAlpha"/>
<feOffset dy="2"/>
<feGaussianBlur stdDeviation="1"/>
<feColorMatrix type="matrix" values="0 0 0 0 0 0 0 0 0 0 0 0 0 0 0 0 0 0 0.25 0"/>
<feBlend mode="normal" in2="BackgroundImageFix" result="effect1_dropShadow"/>
<feBlend mode="normal" in="SourceGraphic" in2="effect1_dropShadow" result="shape"/>
</filter>
<filter id="filter3_d" x="415.627" y="118.971" width="16.7465" height="17.8586" filterUnits="userSpaceOnUse" color-interpolation-filters="sRGB">
<feFlood flood-opacity="0" result="BackgroundImageFix"/>
<feColorMatrix in="SourceAlpha" type="matrix" values="0 0 0 0 0 0 0 0 0 0 0 0 0 0 0 0 0 0 127 0" result="hardAlpha"/>
<feOffset dy="1"/>
<feGaussianBlur stdDeviation="0.4"/>
<feColorMatrix type="matrix" values="0 0 0 0 0 0 0 0 0 0 0 0 0 0 0 0 0 0 0.5 0"/>
<feBlend mode="normal" in2="BackgroundImageFix" result="effect1_dropShadow"/>
<feBlend mode="normal" in="SourceGraphic" in2="effect1_dropShadow" result="shape"/>
</filter>
<filter id="filter4_d" x="364" y="0" width="40" height="40" filterUnits="userSpaceOnUse" color-interpolation-filters="sRGB">
<feFlood flood-opacity="0" result="BackgroundImageFix"/>
<feColorMatrix in="SourceAlpha" type="matrix" values="0 0 0 0 0 0 0 0 0 0 0 0 0 0 0 0 0 0 127 0" result="hardAlpha"/>
<feMorphology radius="40" operator="erode" in="SourceAlpha" result="effect1_dropShadow"/>
<feOffset dy="6"/>
<feGaussianBlur stdDeviation="6"/>
<feColorMatrix type="matrix" values="0 0 0 0 0.0784314 0 0 0 0 0.0784314 0 0 0 0 0.145098 0 0 0 0.16 0"/>
<feBlend mode="multiply" in2="BackgroundImageFix" result="effect1_dropShadow"/>
<feBlend mode="normal" in="SourceGraphic" in2="effect1_dropShadow" result="shape"/>
</filter>
<filter id="filter5_d" x="340" y="0" width="88" height="94" filterUnits="userSpaceOnUse" color-interpolation-filters="sRGB">
<feFlood flood-opacity="0" result="BackgroundImageFix"/>
<feColorMatrix in="SourceAlpha" type="matrix" values="0 0 0 0 0 0 0 0 0 0 0 0 0 0 0 0 0 0 127 0" result="hardAlpha"/>
<feOffset dy="30"/>
<feGaussianBlur stdDeviation="12"/>
<feColorMatrix type="matrix" values="0 0 0 0 0.968627 0 0 0 0 0.968627 0 0 0 0 0.972549 0 0 0 1 0"/>
<feBlend mode="normal" in2="BackgroundImageFix" result="effect1_dropShadow"/>
<feBlend mode="normal" in="SourceGraphic" in2="effect1_dropShadow" result="shape"/>
</filter>
<clipPath id="clip0">
<path d="M40 43C40 31.9543 48.9543 23 60 23H420C431.046 23 440 31.9543 440 43V270C440 281.046 431.046 290 420 290H60C48.9543 290 40 281.046 40 270V43Z" fill="white"/>
</clipPath>
<clipPath id="clip1">
<rect width="400" height="500" fill="white" transform="translate(40 23)"/>
</clipPath>
</defs>
</svg>
