<svg width="400" height="233" viewBox="0 0 400 233" fill="none" xmlns="http://www.w3.org/2000/svg">
    <g filter="url(#filter0_d)">
        <g clip-path="url(#clip0)">
            <path d="M0 43C0 31.9543 8.95431 23 20 23H380C391.046 23 400 31.9543 400 43V270C400 281.046 391.046 290 380 290H20C8.95431 290 0 281.046 0 270V43Z" fill="white"/>
            <g clip-path="url(#clip1)">
                <rect width="400" height="500" transform="translate(0 23)" fill="white"/>
                <path d="M46.924 56.4V69H44.62V58.38H38.086V69H35.782V56.4H46.924ZM54.5089 69.126C53.5369 69.126 52.6609 68.916 51.8809 68.496C51.1009 68.076 50.4889 67.494 50.0449 66.75C49.6129 65.994 49.3969 65.142 49.3969 64.194C49.3969 63.246 49.6129 62.4 50.0449 61.656C50.4889 60.912 51.1009 60.33 51.8809 59.91C52.6609 59.49 53.5369 59.28 54.5089 59.28C55.4929 59.28 56.3749 59.49 57.1549 59.91C57.9349 60.33 58.5409 60.912 58.9729 61.656C59.4169 62.4 59.6389 63.246 59.6389 64.194C59.6389 65.142 59.4169 65.994 58.9729 66.75C58.5409 67.494 57.9349 68.076 57.1549 68.496C56.3749 68.916 55.4929 69.126 54.5089 69.126ZM54.5089 67.2C55.3369 67.2 56.0209 66.924 56.5609 66.372C57.1009 65.82 57.3709 65.094 57.3709 64.194C57.3709 63.294 57.1009 62.568 56.5609 62.016C56.0209 61.464 55.3369 61.188 54.5089 61.188C53.6809 61.188 52.9969 61.464 52.4569 62.016C51.9289 62.568 51.6649 63.294 51.6649 64.194C51.6649 65.094 51.9289 65.82 52.4569 66.372C52.9969 66.924 53.6809 67.2 54.5089 67.2ZM68.8276 63.996C70.0156 64.356 70.6096 65.124 70.6096 66.3C70.6096 67.164 70.2856 67.83 69.6376 68.298C68.9896 68.766 68.0296 69 66.7576 69H61.8616V59.388H66.5596C67.7356 59.388 68.6536 59.604 69.3136 60.036C69.9736 60.468 70.3036 61.08 70.3036 61.872C70.3036 62.364 70.1716 62.79 69.9076 63.15C69.6556 63.51 69.2956 63.792 68.8276 63.996ZM64.0036 63.402H66.3616C67.5256 63.402 68.1076 63 68.1076 62.196C68.1076 61.416 67.5256 61.026 66.3616 61.026H64.0036V63.402ZM66.5776 67.362C67.8136 67.362 68.4316 66.96 68.4316 66.156C68.4316 65.736 68.2876 65.424 67.9996 65.22C67.7116 65.004 67.2616 64.896 66.6496 64.896H64.0036V67.362H66.5776ZM73.0061 59.388H75.2561V69H73.0061V59.388ZM74.1401 57.804C73.7321 57.804 73.3901 57.678 73.1141 57.426C72.8381 57.162 72.7001 56.838 72.7001 56.454C72.7001 56.07 72.8381 55.752 73.1141 55.5C73.3901 55.236 73.7321 55.104 74.1401 55.104C74.5481 55.104 74.8901 55.23 75.1661 55.482C75.4421 55.722 75.5801 56.028 75.5801 56.4C75.5801 56.796 75.4421 57.132 75.1661 57.408C74.9021 57.672 74.5601 57.804 74.1401 57.804ZM88.5572 67.092V71.142H86.4512V69H79.0352V71.142H76.9472V67.092H77.3972C78.0092 67.068 78.4232 66.678 78.6392 65.922C78.8672 65.154 79.0172 64.074 79.0892 62.682L79.2152 59.388H87.1352V67.092H88.5572ZM81.1412 62.844C81.0932 63.948 81.0032 64.848 80.8712 65.544C80.7392 66.24 80.4992 66.756 80.1512 67.092H84.8852V61.296H81.1952L81.1412 62.844ZM94.8507 69.126C93.8787 69.126 93.0027 68.916 92.2227 68.496C91.4427 68.076 90.8307 67.494 90.3867 66.75C89.9547 65.994 89.7387 65.142 89.7387 64.194C89.7387 63.246 89.9547 62.4 90.3867 61.656C90.8307 60.912 91.4427 60.33 92.2227 59.91C93.0027 59.49 93.8787 59.28 94.8507 59.28C95.8347 59.28 96.7167 59.49 97.4967 59.91C98.2767 60.33 98.8827 60.912 99.3147 61.656C99.7587 62.4 99.9807 63.246 99.9807 64.194C99.9807 65.142 99.7587 65.994 99.3147 66.75C98.8827 67.494 98.2767 68.076 97.4967 68.496C96.7167 68.916 95.8347 69.126 94.8507 69.126ZM94.8507 67.2C95.6787 67.2 96.3627 66.924 96.9027 66.372C97.4427 65.82 97.7127 65.094 97.7127 64.194C97.7127 63.294 97.4427 62.568 96.9027 62.016C96.3627 61.464 95.6787 61.188 94.8507 61.188C94.0227 61.188 93.3387 61.464 92.7987 62.016C92.2707 62.568 92.0067 63.294 92.0067 64.194C92.0067 65.094 92.2707 65.82 92.7987 66.372C93.3387 66.924 94.0227 67.2 94.8507 67.2ZM111.653 69V62.628L108.413 67.992H107.441L104.255 62.61V69H102.203V59.388H104.561L107.981 65.4L111.563 59.388H113.669L113.687 69H111.653ZM125.417 59.388V69H123.167V61.296H119.567L119.477 63.204C119.417 64.476 119.297 65.544 119.117 66.408C118.949 67.26 118.655 67.938 118.235 68.442C117.827 68.934 117.263 69.18 116.543 69.18C116.207 69.18 115.793 69.114 115.301 68.982L115.409 67.092C115.577 67.128 115.721 67.146 115.841 67.146C116.297 67.146 116.639 66.966 116.867 66.606C117.095 66.234 117.239 65.796 117.299 65.292C117.371 64.776 117.431 64.044 117.479 63.096L117.641 59.388H125.417ZM137.448 64.248C137.448 64.404 137.436 64.626 137.412 64.914H129.87C130.002 65.622 130.344 66.186 130.896 66.606C131.46 67.014 132.156 67.218 132.984 67.218C134.04 67.218 134.91 66.87 135.594 66.174L136.8 67.56C136.368 68.076 135.822 68.466 135.162 68.73C134.502 68.994 133.758 69.126 132.93 69.126C131.874 69.126 130.944 68.916 130.14 68.496C129.336 68.076 128.712 67.494 128.268 66.75C127.836 65.994 127.62 65.142 127.62 64.194C127.62 63.258 127.83 62.418 128.25 61.674C128.682 60.918 129.276 60.33 130.032 59.91C130.788 59.49 131.64 59.28 132.588 59.28C133.524 59.28 134.358 59.49 135.09 59.91C135.834 60.318 136.41 60.9 136.818 61.656C137.238 62.4 137.448 63.264 137.448 64.248ZM132.588 61.08C131.868 61.08 131.256 61.296 130.752 61.728C130.26 62.148 129.96 62.712 129.852 63.42H135.306C135.21 62.724 134.916 62.16 134.424 61.728C133.932 61.296 133.32 61.08 132.588 61.08ZM139.908 59.388H142.158V63.294H147V59.388H149.25V69H147V65.202H142.158V69H139.908V59.388ZM152.266 59.388H154.516V63.294H159.358V59.388H161.608V69H159.358V65.202H154.516V69H152.266V59.388ZM172.741 59.388V69H170.725V66.102H168.187L166.225 69H163.813L166.081 65.796C165.385 65.556 164.851 65.19 164.479 64.698C164.119 64.194 163.939 63.576 163.939 62.844C163.939 61.74 164.329 60.888 165.109 60.288C165.889 59.688 166.963 59.388 168.331 59.388H172.741ZM168.403 61.278C166.951 61.278 166.225 61.824 166.225 62.916C166.225 63.996 166.927 64.536 168.331 64.536H170.725V61.278H168.403Z" fill="#0A0A0B"/>
                <path d="M0 89L400 89" stroke="#D4D4D8" stroke-linecap="round"/>
                <rect width="400" height="216" transform="translate(0 90)" fill="#EFF8FB"/>
                <circle cx="16" cy="122" r="3" fill="#FF6666"/>
                <path d="M40.032 128.168C42.188 128.168 43.728 127.034 43.728 125.452C43.728 124.01 42.468 123.268 41.558 123.184C42.524 123.016 43.588 122.288 43.588 121.042C43.588 119.474 42.048 118.522 40.032 118.522C38.478 118.522 37.176 119.152 36.462 119.992L37.302 121.014C37.974 120.342 38.926 119.978 39.878 119.978C41.026 119.978 41.95 120.426 41.95 121.294C41.95 122.148 41.04 122.526 39.85 122.526H37.974V123.968H39.85C41.278 123.968 42.104 124.36 42.104 125.284C42.104 126.152 41.306 126.712 39.976 126.712C38.982 126.712 37.82 126.278 37.218 125.578L36.336 126.656C36.966 127.496 38.366 128.168 40.032 128.168ZM47.0161 119.796C47.0161 118.984 46.4981 118.522 45.9241 118.522C45.4061 118.522 44.9721 118.956 44.9721 119.488C44.9721 120.006 45.3361 120.37 45.8121 120.37C45.8961 120.37 46.0081 120.342 46.0501 120.328C45.9521 120.804 45.4901 121.378 45.0421 121.644L45.7001 122.19C46.4701 121.644 47.0161 120.762 47.0161 119.796ZM50.0561 128L51.5401 125.55H53.0941V128H54.5641V121.238H50.7001C49.2441 121.238 48.4601 122.232 48.4601 123.394C48.4601 124.556 49.1601 125.284 50.0421 125.48L48.3761 128H50.0561ZM50.8821 124.262C50.2941 124.262 49.9581 123.898 49.9581 123.394C49.9581 122.89 50.3221 122.526 50.8821 122.526H53.0941V124.262H50.8821ZM60.6058 128C61.9218 128 62.6498 127.216 62.6498 126.166C62.6498 125.368 62.1038 124.682 61.3758 124.514C61.9918 124.332 62.5098 123.786 62.5098 122.974C62.5098 122.008 61.7958 121.238 60.5078 121.238H56.4618V128H60.6058ZM60.2978 126.712H57.9318V125.186H60.2978C60.8438 125.186 61.1378 125.55 61.1378 125.956C61.1378 126.432 60.8158 126.712 60.2978 126.712ZM60.2558 123.898H57.9318V122.526H60.2558C60.7318 122.526 61.0118 122.806 61.0118 123.226C61.0118 123.604 60.7318 123.898 60.2558 123.898ZM65.8875 128L69.0515 123.324V128H70.5215V121.238H69.0515L65.9435 125.788V121.238H64.4735V128H65.8875ZM71.7305 128.168C73.2145 128.168 74.0545 127.146 74.3205 124.696L74.5585 122.526H77.0085V128H78.4785V121.238H73.2565L72.8505 124.528C72.6265 126.306 72.3045 126.964 71.7305 126.964V128.168ZM83.4395 128.168C85.6095 128.168 86.9255 126.558 86.9255 124.612C86.9255 122.68 85.6095 121.07 83.4395 121.07C81.2975 121.07 79.9675 122.68 79.9675 124.612C79.9675 126.558 81.2975 128.168 83.4395 128.168ZM83.4395 126.866C82.1935 126.866 81.4935 125.816 81.4935 124.612C81.4935 123.422 82.1935 122.372 83.4395 122.372C84.6995 122.372 85.3995 123.422 85.3995 124.612C85.3995 125.816 84.6995 126.866 83.4395 126.866ZM91.4929 128.168C92.8089 128.168 93.6069 127.608 94.0829 126.964L93.1169 126.068C92.7389 126.586 92.2209 126.866 91.5629 126.866C90.3309 126.866 89.5189 125.928 89.5189 124.612C89.5189 123.296 90.3309 122.372 91.5629 122.372C92.2209 122.372 92.7389 122.638 93.1169 123.17L94.0829 122.274C93.6069 121.63 92.8089 121.07 91.4929 121.07C89.4349 121.07 87.9929 122.568 87.9929 124.612C87.9929 126.67 89.4349 128.168 91.4929 128.168ZM96.8139 128L98.2979 125.55H99.8519V128H101.322V121.238H97.4579C96.0019 121.238 95.2179 122.232 95.2179 123.394C95.2179 124.556 95.9179 125.284 96.7999 125.48L95.1339 128H96.8139ZM97.6399 124.262C97.0519 124.262 96.7159 123.898 96.7159 123.394C96.7159 122.89 97.0799 122.526 97.6399 122.526H99.8519V124.262H97.6399ZM113.325 128V126.558H109.181C111.687 124.668 113.269 123.128 113.269 121.406C113.269 119.544 111.687 118.522 109.881 118.522C108.579 118.522 107.263 119.026 106.437 120.02L107.389 121.098C107.977 120.426 108.817 119.978 109.909 119.978C110.763 119.978 111.603 120.426 111.603 121.406C111.603 122.75 110.189 123.968 106.563 126.712V128H113.325ZM121.651 128V126.558H117.507C120.013 124.668 121.595 123.128 121.595 121.406C121.595 119.544 120.013 118.522 118.207 118.522C116.905 118.522 115.589 119.026 114.763 120.02L115.715 121.098C116.303 120.426 117.143 119.978 118.235 119.978C119.089 119.978 119.929 120.426 119.929 121.406C119.929 122.75 118.515 123.968 114.889 126.712V128H121.651ZM129.499 128.168C131.487 128.168 132.691 127.328 132.691 126.166C132.691 125.102 131.571 124.598 130.759 124.542C131.613 124.416 132.551 123.842 132.551 122.918C132.551 121.77 131.319 121.07 129.331 121.084C128.099 121.084 127.147 121.532 126.503 122.19L127.231 123.086C127.777 122.54 128.491 122.274 129.401 122.274C130.339 122.274 131.025 122.624 131.025 123.114C131.025 123.702 130.381 123.996 129.373 123.996H127.931V125.172H129.373C130.409 125.172 131.151 125.41 131.151 126.054C131.151 126.6 130.535 126.964 129.499 126.964C128.603 126.964 127.707 126.698 127.077 126.138L126.391 127.076C127.063 127.734 128.113 128.168 129.499 128.168ZM141.747 128V121.238H139.815L137.967 125.606L136.091 121.238H134.173V128H135.643V123.296L137.673 128H138.261L140.277 123.296V128H141.747ZM144.375 120.412C144.879 120.412 145.285 120.006 145.285 119.502C145.285 118.998 144.879 118.592 144.375 118.592C143.885 118.592 143.465 118.998 143.465 119.502C143.465 120.006 143.885 120.412 144.375 120.412ZM145.117 128V121.238H143.647V128H145.117ZM148.494 128V125.186H151.602V128H153.072V121.238H151.602V123.898H148.494V121.238H147.024V128H148.494ZM156.395 128L159.559 123.324V128H161.029V121.238H159.559L156.451 125.788V121.238H154.981V128H156.395ZM166.24 130.646C166.45 130.702 166.856 130.744 167.066 130.744C168.116 130.73 168.928 130.366 169.39 129.218L172.652 121.238H171.07L169.096 126.306L167.122 121.238H165.554L168.326 128.084L167.99 128.854C167.794 129.302 167.486 129.442 167.024 129.442C166.856 129.442 166.618 129.4 166.464 129.33L166.24 130.646ZM181.315 128C182.631 128 183.359 127.216 183.359 126.166C183.359 125.368 182.813 124.682 182.085 124.514C182.701 124.332 183.219 123.786 183.219 122.974C183.219 122.008 182.505 121.238 181.217 121.238H177.171V128H181.315ZM181.007 126.712H178.641V125.186H181.007C181.553 125.186 181.847 125.55 181.847 125.956C181.847 126.432 181.525 126.712 181.007 126.712ZM180.965 123.898H178.641V122.526H180.965C181.441 122.526 181.721 122.806 181.721 123.226C181.721 123.604 181.441 123.898 180.965 123.898ZM186.596 128L189.76 123.324V128H191.23V121.238H189.76L186.652 125.788V121.238H185.182V128H186.596ZM200.714 128V121.238H198.782L196.934 125.606L195.058 121.238H193.14V128H194.61V123.296L196.64 128H197.228L199.244 123.296V128H200.714ZM205.666 128.168C207.836 128.168 209.152 126.558 209.152 124.612C209.152 122.68 207.836 121.07 205.666 121.07C203.524 121.07 202.194 122.68 202.194 124.612C202.194 126.558 203.524 128.168 205.666 128.168ZM205.666 126.866C204.42 126.866 203.72 125.816 203.72 124.612C203.72 123.422 204.42 122.372 205.666 122.372C206.926 122.372 207.626 123.422 207.626 124.612C207.626 125.816 206.926 126.866 205.666 126.866ZM215.764 121.238H210.64V128H212.11V122.526H215.764V121.238ZM222.57 128V123.52C222.57 121.7 221.254 121.07 219.756 121.07C218.678 121.07 217.698 121.42 216.914 122.162L217.516 123.184C218.104 122.61 218.762 122.33 219.518 122.33C220.456 122.33 221.1 122.806 221.1 123.59V124.598C220.61 124.024 219.826 123.73 218.916 123.73C217.81 123.73 216.564 124.374 216.564 125.928C216.564 127.426 217.81 128.168 218.916 128.168C219.812 128.168 220.596 127.846 221.1 127.272V128H222.57ZM219.49 127.16C218.664 127.16 218.048 126.684 218.048 125.956C218.048 125.214 218.664 124.738 219.49 124.738C220.134 124.738 220.764 124.976 221.1 125.438V126.46C220.764 126.922 220.134 127.16 219.49 127.16ZM230.397 128L227.905 124.528L230.243 121.238H228.591L226.995 123.534L225.385 121.238H223.733L226.071 124.528L223.593 128H225.231L226.995 125.508L228.745 128H230.397ZM234.316 129.722H235.786V128H240.336V129.722H241.806V126.712H241.064V121.238H235.842L235.436 124.528C235.212 126.306 234.89 126.642 234.316 126.782V129.722ZM237.144 122.526H239.594V126.712H236.01C236.486 126.292 236.808 125.634 236.906 124.696L237.144 122.526ZM246.067 128.168C248.237 128.168 249.553 126.558 249.553 124.612C249.553 122.68 248.237 121.07 246.067 121.07C243.925 121.07 242.595 122.68 242.595 124.612C242.595 126.558 243.925 128.168 246.067 128.168ZM246.067 126.866C244.821 126.866 244.12 125.816 244.12 124.612C244.12 123.422 244.821 122.372 246.067 122.372C247.327 122.372 248.027 123.422 248.027 124.612C248.027 125.816 247.327 126.866 246.067 126.866ZM257.338 128V122.526H259.284V121.238H253.936V122.526H255.868V128H257.338ZM263.609 128.168C264.687 128.168 265.681 127.832 266.353 127.188L265.681 126.222C265.205 126.698 264.421 126.964 263.763 126.964C262.489 126.964 261.719 126.124 261.607 125.102H266.829V124.752C266.829 122.624 265.527 121.07 263.497 121.07C261.495 121.07 260.067 122.652 260.067 124.612C260.067 126.754 261.579 128.168 263.609 128.168ZM265.401 124.066H261.593C261.663 123.24 262.237 122.274 263.497 122.274C264.827 122.274 265.373 123.268 265.401 124.066ZM269.75 128V125.186H272.858V128H274.328V121.238H272.858V123.898H269.75V121.238H268.28V128H269.75ZM275.537 129.722H277.007V128H281.557V129.722H283.027V126.712H282.285V121.238H277.063L276.657 124.528C276.433 126.306 276.111 126.642 275.537 126.782V129.722ZM278.365 122.526H280.815V126.712H277.231C277.707 126.292 278.029 125.634 278.127 124.696L278.365 122.526ZM287.357 128.168C288.435 128.168 289.429 127.832 290.101 127.188L289.429 126.222C288.953 126.698 288.169 126.964 287.511 126.964C286.237 126.964 285.467 126.124 285.355 125.102H290.577V124.752C290.577 122.624 289.275 121.07 287.245 121.07C285.243 121.07 283.815 122.652 283.815 124.612C283.815 126.754 285.327 128.168 287.357 128.168ZM289.149 124.066H285.341C285.411 123.24 285.985 122.274 287.245 122.274C288.575 122.274 289.121 123.268 289.149 124.066ZM295.668 128.168C297.418 128.168 298.664 126.838 298.664 124.612C298.664 122.386 297.418 121.07 295.668 121.07C294.786 121.07 294.002 121.49 293.498 122.162V121.238H292.028V130.576H293.498V127.062C294.044 127.79 294.814 128.168 295.668 128.168ZM295.234 126.866C294.548 126.866 293.82 126.446 293.498 125.956V123.282C293.82 122.778 294.548 122.372 295.234 122.372C296.396 122.372 297.138 123.31 297.138 124.612C297.138 125.928 296.396 126.866 295.234 126.866ZM301.592 128V125.186H304.7V128H306.17V121.238H304.7V123.898H301.592V121.238H300.122V128H301.592ZM311.131 128.168C313.301 128.168 314.617 126.558 314.617 124.612C314.617 122.68 313.301 121.07 311.131 121.07C308.989 121.07 307.659 122.68 307.659 124.612C307.659 126.558 308.989 128.168 311.131 128.168ZM311.131 126.866C309.885 126.866 309.185 125.816 309.185 124.612C309.185 123.422 309.885 122.372 311.131 122.372C312.391 122.372 313.091 123.422 313.091 124.612C313.091 125.816 312.391 126.866 311.131 126.866ZM319.128 119.488C319.128 119.04 318.75 118.676 318.302 118.676C317.854 118.676 317.476 119.04 317.476 119.488C317.476 119.95 317.854 120.314 318.302 120.314C318.75 120.314 319.128 119.95 319.128 119.488ZM316.188 119.488C316.188 119.04 315.824 118.676 315.376 118.676C314.914 118.676 314.55 119.04 314.55 119.488C314.55 119.95 314.914 120.314 315.376 120.314C315.824 120.314 316.188 119.95 316.188 119.488ZM317.574 128V121.238H316.104V128H317.574ZM36.252 149.722H37.722V148H42.272V149.722H43.742V146.712H43V141.238H37.778L37.372 144.528C37.148 146.306 36.826 146.642 36.252 146.782V149.722ZM39.08 142.526H41.53V146.712H37.946C38.422 146.292 38.744 145.634 38.842 144.696L39.08 142.526ZM48.002 148.168C50.172 148.168 51.488 146.558 51.488 144.612C51.488 142.68 50.172 141.07 48.002 141.07C45.86 141.07 44.53 142.68 44.53 144.612C44.53 146.558 45.86 148.168 48.002 148.168ZM48.002 146.866C46.756 146.866 46.056 145.816 46.056 144.612C46.056 143.422 46.756 142.372 48.002 142.372C49.262 142.372 49.962 143.422 49.962 144.612C49.962 145.816 49.262 146.866 48.002 146.866ZM59.3034 148L56.4334 144.304L59.2474 141.238H57.4274L54.4454 144.5V141.238H52.9754V148H54.4454V146.18L55.3834 145.214L57.4554 148H59.3034ZM60.0506 150.646C60.2606 150.702 60.6666 150.744 60.8766 150.744C61.9266 150.73 62.7386 150.366 63.2006 149.218L66.4626 141.238H64.8806L62.9066 146.306L60.9326 141.238H59.3646L62.1366 148.084L61.8006 148.854C61.6046 149.302 61.2966 149.442 60.8346 149.442C60.6666 149.442 60.4286 149.4 60.2746 149.33L60.0506 150.646ZM74.9596 148V141.238H73.0276L71.1796 145.606L69.3036 141.238H67.3856V148H68.8556V143.296L70.8856 148H71.4736L73.4896 143.296V148H74.9596ZM79.9822 148.168C81.0602 148.168 82.0542 147.832 82.7262 147.188L82.0542 146.222C81.5782 146.698 80.7942 146.964 80.1362 146.964C78.8622 146.964 78.0922 146.124 77.9802 145.102H83.2022V144.752C83.2022 142.624 81.9002 141.07 79.8702 141.07C77.8682 141.07 76.4402 142.652 76.4402 144.612C76.4402 146.754 77.9522 148.168 79.9822 148.168ZM81.7742 144.066H77.9662C78.0362 143.24 78.6102 142.274 79.8702 142.274C81.2002 142.274 81.7462 143.268 81.7742 144.066ZM86.1232 148V145.186H89.2312V148H90.7012V141.238H89.2312V143.898H86.1232V141.238H84.6532V148H86.1232ZM95.3122 148V142.526H97.2582V141.238H91.9102V142.526H93.8422V148H95.3122ZM104.062 148V143.52C104.062 141.7 102.746 141.07 101.248 141.07C100.17 141.07 99.1898 141.42 98.4058 142.162L99.0078 143.184C99.5958 142.61 100.254 142.33 101.01 142.33C101.948 142.33 102.592 142.806 102.592 143.59V144.598C102.102 144.024 101.318 143.73 100.408 143.73C99.3018 143.73 98.0558 144.374 98.0558 145.928C98.0558 147.426 99.3018 148.168 100.408 148.168C101.304 148.168 102.088 147.846 102.592 147.272V148H104.062ZM100.982 147.16C100.156 147.16 99.5398 146.684 99.5398 145.956C99.5398 145.214 100.156 144.738 100.982 144.738C101.626 144.738 102.256 144.976 102.592 145.438V146.46C102.256 146.922 101.626 147.16 100.982 147.16ZM111.288 149.722H112.758V146.712H112.016V141.238H110.546V146.712H107.438V141.238H105.968V148H111.288V149.722ZM114.694 140.412C115.198 140.412 115.604 140.006 115.604 139.502C115.604 138.998 115.198 138.592 114.694 138.592C114.204 138.592 113.784 138.998 113.784 139.502C113.784 140.006 114.204 140.412 114.694 140.412ZM115.436 148V141.238H113.966V148H115.436ZM120.367 139.488C120.367 139.04 119.989 138.676 119.541 138.676C119.093 138.676 118.715 139.04 118.715 139.488C118.715 139.95 119.093 140.314 119.541 140.314C119.989 140.314 120.367 139.95 120.367 139.488ZM117.427 139.488C117.427 139.04 117.063 138.676 116.615 138.676C116.153 138.676 115.789 139.04 115.789 139.488C115.789 139.95 116.153 140.314 116.615 140.314C117.063 140.314 117.427 139.95 117.427 139.488ZM118.813 148V141.238H117.343V148H118.813Z" fill="#FF6666"/>
                <path d="M40.9 188.168C43.434 188.168 44.708 186.684 44.708 184.36V178.662H43.546V184.346C43.546 186.054 42.622 187.132 40.9 187.132C39.178 187.132 38.254 186.054 38.254 184.346V178.662H37.092V184.374C37.092 186.67 38.366 188.168 40.9 188.168ZM54.5196 188L50.7536 178.662H49.3116L45.5596 188H46.8896L47.7156 185.928H52.3636L53.1896 188H54.5196ZM52.0136 184.892H48.0516L50.0396 179.866L52.0136 184.892ZM58.4284 185.074V184.15H55.0684V185.074H58.4284ZM66.0137 188V186.964H61.4357C64.0397 184.906 65.9717 183.17 65.9717 181.266C65.9717 179.404 64.3897 178.522 62.8357 178.522C61.5197 178.522 60.3017 179.054 59.5877 179.992L60.3017 180.734C60.8477 180.034 61.7157 179.558 62.8357 179.558C63.8017 179.558 64.7817 180.076 64.7817 181.266C64.7817 182.876 62.9617 184.43 59.6017 187.076V188H66.0137ZM71.3602 188.168C73.9082 188.168 74.9302 185.606 74.9302 183.338C74.9302 181.056 73.9082 178.522 71.3602 178.522C68.7982 178.522 67.7902 181.056 67.7902 183.338C67.7902 185.606 68.7982 188.168 71.3602 188.168ZM71.3602 187.132C69.5822 187.132 68.9802 185.2 68.9802 183.338C68.9802 181.476 69.5822 179.558 71.3602 179.558C73.1382 179.558 73.7402 181.476 73.7402 183.338C73.7402 185.2 73.1382 187.132 71.3602 187.132ZM82.8164 188V186.964H78.2384C80.8424 184.906 82.7744 183.17 82.7744 181.266C82.7744 179.404 81.1924 178.522 79.6384 178.522C78.3224 178.522 77.1044 179.054 76.3904 179.992L77.1044 180.734C77.6504 180.034 78.5184 179.558 79.6384 179.558C80.6044 179.558 81.5844 180.076 81.5844 181.266C81.5844 182.876 79.7644 184.43 76.4044 187.076V188H82.8164ZM87.5329 188V178.662H86.5109L84.1729 181.07L84.8729 181.784L86.3709 180.202V188H87.5329ZM92.403 185.074V184.15H89.043V185.074H92.403ZM97.1043 188.168C99.6523 188.168 100.674 185.606 100.674 183.338C100.674 181.056 99.6523 178.522 97.1043 178.522C94.5423 178.522 93.5343 181.056 93.5343 183.338C93.5343 185.606 94.5423 188.168 97.1043 188.168ZM97.1043 187.132C95.3263 187.132 94.7243 185.2 94.7243 183.338C94.7243 181.476 95.3263 179.558 97.1043 179.558C98.8823 179.558 99.4843 181.476 99.4843 183.338C99.4843 185.2 98.8823 187.132 97.1043 187.132ZM108.561 188V186.964H103.983C106.587 184.906 108.519 183.17 108.519 181.266C108.519 179.404 106.937 178.522 105.383 178.522C104.067 178.522 102.849 179.054 102.135 179.992L102.849 180.734C103.395 180.034 104.263 179.558 105.383 179.558C106.349 179.558 107.329 180.076 107.329 181.266C107.329 182.876 105.509 184.43 102.149 187.076V188H108.561ZM113.403 185.074V184.15H110.043V185.074H113.403ZM120.988 188V186.964H116.41C119.014 184.906 120.946 183.17 120.946 181.266C120.946 179.404 119.364 178.522 117.81 178.522C116.494 178.522 115.276 179.054 114.562 179.992L115.276 180.734C115.822 180.034 116.69 179.558 117.81 179.558C118.776 179.558 119.756 180.076 119.756 181.266C119.756 182.876 117.936 184.43 114.576 187.076V188H120.988ZM129.219 188V186.964H124.641C127.245 184.906 129.177 183.17 129.177 181.266C129.177 179.404 127.595 178.522 126.041 178.522C124.725 178.522 123.507 179.054 122.793 179.992L123.507 180.734C124.053 180.034 124.921 179.558 126.041 179.558C127.007 179.558 127.987 180.076 127.987 181.266C127.987 182.876 126.167 184.43 122.807 187.076V188H129.219ZM134.061 185.074V184.15H130.701V185.074H134.061ZM138.763 188.168C141.311 188.168 142.333 185.606 142.333 183.338C142.333 181.056 141.311 178.522 138.763 178.522C136.201 178.522 135.193 181.056 135.193 183.338C135.193 185.606 136.201 188.168 138.763 188.168ZM138.763 187.132C136.985 187.132 136.383 185.2 136.383 183.338C136.383 181.476 136.985 179.558 138.763 179.558C140.541 179.558 141.143 181.476 141.143 183.338C141.143 185.2 140.541 187.132 138.763 187.132ZM147.335 188.168C149.883 188.168 150.905 185.606 150.905 183.338C150.905 181.056 149.883 178.522 147.335 178.522C144.773 178.522 143.765 181.056 143.765 183.338C143.765 185.606 144.773 188.168 147.335 188.168ZM147.335 187.132C145.557 187.132 144.955 185.2 144.955 183.338C144.955 181.476 145.557 179.558 147.335 179.558C149.113 179.558 149.715 181.476 149.715 183.338C149.715 185.2 149.113 187.132 147.335 187.132ZM155.389 188.154C158.007 188.154 159.183 185.858 159.183 183.338C159.183 180.79 158.189 178.508 155.571 178.508C153.541 178.508 152.309 179.95 152.309 181.56C152.309 183.548 153.695 184.542 155.375 184.542C156.565 184.542 157.601 183.73 158.007 183.086C158.021 183.212 158.021 183.338 158.021 183.464C158.021 185.228 157.279 187.118 155.389 187.118C154.423 187.118 153.863 186.726 153.387 186.166L152.799 187.034C153.387 187.706 154.199 188.154 155.389 188.154ZM155.641 183.534C154.437 183.534 153.485 182.89 153.485 181.518C153.485 180.636 154.199 179.544 155.627 179.544C157.251 179.544 157.867 180.986 157.965 182.148C157.475 182.974 156.565 183.534 155.641 183.534ZM163.661 188.154C166.279 188.154 167.455 185.858 167.455 183.338C167.455 180.79 166.461 178.508 163.843 178.508C161.813 178.508 160.581 179.95 160.581 181.56C160.581 183.548 161.967 184.542 163.647 184.542C164.837 184.542 165.873 183.73 166.279 183.086C166.293 183.212 166.293 183.338 166.293 183.464C166.293 185.228 165.551 187.118 163.661 187.118C162.695 187.118 162.135 186.726 161.659 186.166L161.071 187.034C161.659 187.706 162.471 188.154 163.661 188.154ZM163.913 183.534C162.709 183.534 161.757 182.89 161.757 181.518C161.757 180.636 162.471 179.544 163.899 179.544C165.523 179.544 166.139 180.986 166.237 182.148C165.747 182.974 164.837 183.534 163.913 183.534ZM174.214 188V185.634H175.53V184.612H174.214V178.662H172.618L168.614 184.668V185.634H173.052V188H174.214ZM173.052 184.612H169.776L173.052 179.74V184.612ZM179.739 188.154C182.357 188.154 183.533 185.858 183.533 183.338C183.533 180.79 182.539 178.508 179.921 178.508C177.891 178.508 176.659 179.95 176.659 181.56C176.659 183.548 178.045 184.542 179.725 184.542C180.915 184.542 181.951 183.73 182.357 183.086C182.371 183.212 182.371 183.338 182.371 183.464C182.371 185.228 181.629 187.118 179.739 187.118C178.773 187.118 178.213 186.726 177.737 186.166L177.149 187.034C177.737 187.706 178.549 188.154 179.739 188.154ZM179.991 183.534C178.787 183.534 177.835 182.89 177.835 181.518C177.835 180.636 178.549 179.544 179.977 179.544C181.601 179.544 182.217 180.986 182.315 182.148C181.825 182.974 180.915 183.534 179.991 183.534ZM188.024 185.074V184.15H184.664V185.074H188.024ZM190.541 186.166V183.1C190.905 182.512 191.731 182.008 192.557 182.008C193.929 182.008 194.741 183.128 194.741 184.626C194.741 186.124 193.929 187.23 192.557 187.23C191.731 187.23 190.905 186.754 190.541 186.166ZM190.541 188V186.992C191.045 187.678 191.871 188.168 192.823 188.168C194.587 188.168 195.833 186.824 195.833 184.626C195.833 182.47 194.587 181.07 192.823 181.07C191.899 181.07 191.087 181.518 190.541 182.26V178.662H189.491V188H190.541Z" fill="#898994"/>
                <path d="M43.392 216V214.558H38.632V211.968H43.294V210.526H38.632V208.104H43.392V206.662H36.994V216H43.392ZM44.3321 216.168C45.8161 216.168 46.6561 215.146 46.9221 212.696L47.1601 210.526H49.6101V216H51.0801V209.238H45.8581L45.4521 212.528C45.2281 214.306 44.9061 214.964 44.3321 214.964V216.168ZM56.1111 216.168C57.1891 216.168 58.1831 215.832 58.8551 215.188L58.1831 214.222C57.7071 214.698 56.9231 214.964 56.2651 214.964C54.9911 214.964 54.2211 214.124 54.1091 213.102H59.3311V212.752C59.3311 210.624 58.0291 209.07 55.9991 209.07C53.9971 209.07 52.5691 210.652 52.5691 212.612C52.5691 214.754 54.0811 216.168 56.1111 216.168ZM57.9031 212.066H54.0951C54.1651 211.24 54.7391 210.274 55.9991 210.274C57.3291 210.274 57.8751 211.268 57.9031 212.066ZM67.1101 216L64.2401 212.304L67.0541 209.238H65.2341L62.2521 212.5V209.238H60.7821V216H62.2521V214.18L63.1901 213.214L65.2621 216H67.1101ZM70.8532 216V210.526H72.7992V209.238H67.4512V210.526H69.3832V216H70.8532ZM77.6428 216.168C79.3928 216.168 80.6388 214.838 80.6388 212.612C80.6388 210.386 79.3928 209.07 77.6428 209.07C76.7608 209.07 75.9768 209.49 75.4728 210.162V209.238H74.0028V218.576H75.4728V215.062C76.0188 215.79 76.7888 216.168 77.6428 216.168ZM77.2088 214.866C76.5228 214.866 75.7948 214.446 75.4728 213.956V211.282C75.7948 210.778 76.5228 210.372 77.2088 210.372C78.3708 210.372 79.1128 211.31 79.1128 212.612C79.1128 213.928 78.3708 214.866 77.2088 214.866ZM83.5105 216L86.6745 211.324V216H88.1445V209.238H86.6745L83.5665 213.788V209.238H82.0965V216H83.5105ZM89.8156 209.238V211.59C89.8156 212.976 90.5296 213.732 92.4336 213.732C93.2456 213.732 93.9316 213.592 94.3796 213.368V216H95.8496V209.238H94.3796V212.178C94.0296 212.332 93.5396 212.43 92.8956 212.43C91.8176 212.43 91.2856 212.108 91.2856 211.058V209.238H89.8156ZM99.2208 216V213.186H102.329V216H103.799V209.238H102.329V211.898H99.2208V209.238H97.7508V216H99.2208ZM111.308 216V211.52C111.308 209.7 109.992 209.07 108.494 209.07C107.416 209.07 106.436 209.42 105.652 210.162L106.254 211.184C106.842 210.61 107.5 210.33 108.256 210.33C109.194 210.33 109.838 210.806 109.838 211.59V212.598C109.348 212.024 108.564 211.73 107.654 211.73C106.548 211.73 105.302 212.374 105.302 213.928C105.302 215.426 106.548 216.168 107.654 216.168C108.55 216.168 109.334 215.846 109.838 215.272V216H111.308ZM108.228 215.16C107.402 215.16 106.786 214.684 106.786 213.956C106.786 213.214 107.402 212.738 108.228 212.738C108.872 212.738 109.502 212.976 109.838 213.438V214.46C109.502 214.922 108.872 215.16 108.228 215.16ZM119.931 216.168C121.009 216.168 122.003 215.832 122.675 215.188L122.003 214.222C121.527 214.698 120.743 214.964 120.085 214.964C118.811 214.964 118.041 214.124 117.929 213.102H123.151V212.752C123.151 210.624 121.849 209.07 119.819 209.07C117.817 209.07 116.389 210.652 116.389 212.612C116.389 214.754 117.901 216.168 119.931 216.168ZM121.723 212.066H117.915C117.985 211.24 118.559 210.274 119.819 210.274C121.149 210.274 121.695 211.268 121.723 212.066ZM126.072 216V213.186H129.18V216H130.65V209.238H129.18V211.898H126.072V209.238H124.602V216H126.072ZM135.681 216.168C136.759 216.168 137.753 215.832 138.425 215.188L137.753 214.222C137.277 214.698 136.493 214.964 135.835 214.964C134.561 214.964 133.791 214.124 133.679 213.102H138.901V212.752C138.901 210.624 137.599 209.07 135.569 209.07C133.567 209.07 132.139 210.652 132.139 212.612C132.139 214.754 133.651 216.168 135.681 216.168ZM137.473 212.066H133.665C133.735 211.24 134.309 210.274 135.569 210.274C136.899 210.274 137.445 211.268 137.473 212.066ZM143.992 216.168C145.742 216.168 146.988 214.838 146.988 212.612C146.988 210.386 145.742 209.07 143.992 209.07C143.11 209.07 142.326 209.49 141.822 210.162V209.238H140.352V218.576H141.822V215.062C142.368 215.79 143.138 216.168 143.992 216.168ZM143.558 214.866C142.872 214.866 142.144 214.446 141.822 213.956V211.282C142.144 210.778 142.872 210.372 143.558 210.372C144.72 210.372 145.462 211.31 145.462 212.612C145.462 213.928 144.72 214.866 143.558 214.866ZM153.57 209.238H148.446V216H149.916V210.526H153.57V209.238ZM155.504 208.412C156.008 208.412 156.414 208.006 156.414 207.502C156.414 206.998 156.008 206.592 155.504 206.592C155.014 206.592 154.594 206.998 154.594 207.502C154.594 208.006 155.014 208.412 155.504 208.412ZM156.246 216V209.238H154.776V216H156.246ZM159.595 216L161.079 213.55H162.633V216H164.103V209.238H160.239C158.783 209.238 157.999 210.232 157.999 211.394C157.999 212.556 158.699 213.284 159.581 213.48L157.915 216H159.595ZM160.421 212.262C159.833 212.262 159.497 211.898 159.497 211.394C159.497 210.89 159.861 210.526 160.421 210.526H162.633V212.262H160.421ZM168.897 217.722H170.367V216H174.917V217.722H176.387V214.712H175.645V209.238H170.423L170.017 212.528C169.793 214.306 169.471 214.642 168.897 214.782V217.722ZM171.725 210.526H174.175V214.712H170.591C171.067 214.292 171.389 213.634 171.487 212.696L171.725 210.526ZM176.895 216.168C178.379 216.168 179.219 215.146 179.485 212.696L179.723 210.526H182.173V216H183.643V209.238H178.421L178.015 212.528C177.791 214.306 177.469 214.964 176.895 214.964V216.168ZM186.994 216L188.478 213.55H190.032V216H191.502V209.238H187.638C186.182 209.238 185.398 210.232 185.398 211.394C185.398 212.556 186.098 213.284 186.98 213.48L185.314 216H186.994ZM187.82 212.262C187.232 212.262 186.896 211.898 186.896 211.394C186.896 210.89 187.26 210.526 187.82 210.526H190.032V212.262H187.82ZM198.465 216V213.186H201.573V216H203.043V209.238H201.573V211.898H198.465V209.238H196.995V216H198.465ZM210.552 216V211.52C210.552 209.7 209.236 209.07 207.738 209.07C206.66 209.07 205.68 209.42 204.896 210.162L205.498 211.184C206.086 210.61 206.744 210.33 207.5 210.33C208.438 210.33 209.082 210.806 209.082 211.59V212.598C208.592 212.024 207.808 211.73 206.898 211.73C205.792 211.73 204.546 212.374 204.546 213.928C204.546 215.426 205.792 216.168 206.898 216.168C207.794 216.168 208.578 215.846 209.082 215.272V216H210.552ZM207.472 215.16C206.646 215.16 206.03 214.684 206.03 213.956C206.03 213.214 206.646 212.738 207.472 212.738C208.116 212.738 208.746 212.976 209.082 213.438V214.46C208.746 214.922 208.116 215.16 207.472 215.16ZM216.602 216C217.918 216 218.646 215.216 218.646 214.166C218.646 213.368 218.1 212.682 217.372 212.514C217.988 212.332 218.506 211.786 218.506 210.974C218.506 210.008 217.792 209.238 216.504 209.238H212.458V216H216.602ZM216.294 214.712H213.928V213.186H216.294C216.84 213.186 217.134 213.55 217.134 213.956C217.134 214.432 216.812 214.712 216.294 214.712ZM216.252 211.898H213.928V210.526H216.252C216.728 210.526 217.008 210.806 217.008 211.226C217.008 211.604 216.728 211.898 216.252 211.898ZM226.07 216V211.52C226.07 209.7 224.754 209.07 223.256 209.07C222.178 209.07 221.198 209.42 220.414 210.162L221.016 211.184C221.604 210.61 222.262 210.33 223.018 210.33C223.956 210.33 224.6 210.806 224.6 211.59V212.598C224.11 212.024 223.326 211.73 222.416 211.73C221.31 211.73 220.064 212.374 220.064 213.928C220.064 215.426 221.31 216.168 222.416 216.168C223.312 216.168 224.096 215.846 224.6 215.272V216H226.07ZM222.99 215.16C222.164 215.16 221.548 214.684 221.548 213.956C221.548 213.214 222.164 212.738 222.99 212.738C223.634 212.738 224.264 212.976 224.6 213.438V214.46C224.264 214.922 223.634 215.16 222.99 215.16ZM227.275 216.168C228.759 216.168 229.599 215.146 229.865 212.696L230.103 210.526H232.553V216H234.023V209.238H228.801L228.395 212.528C228.171 214.306 227.849 214.964 227.275 214.964V216.168ZM235.932 209.238V216H239.796C241.252 216 242.036 215.006 242.036 213.844C242.036 212.682 241.294 211.688 239.796 211.688H237.402V209.238H235.932ZM239.614 212.976C240.202 212.976 240.538 213.34 240.538 213.844C240.538 214.348 240.202 214.712 239.614 214.712H237.402V212.976H239.614ZM244.963 216V213.186H248.071V216H249.541V209.238H248.071V211.898H244.963V209.238H243.493V216H244.963ZM254.502 216.168C256.672 216.168 257.988 214.558 257.988 212.612C257.988 210.68 256.672 209.07 254.502 209.07C252.36 209.07 251.03 210.68 251.03 212.612C251.03 214.558 252.36 216.168 254.502 216.168ZM254.502 214.866C253.256 214.866 252.556 213.816 252.556 212.612C252.556 211.422 253.256 210.372 254.502 210.372C255.762 210.372 256.462 211.422 256.462 212.612C256.462 213.816 255.762 214.866 254.502 214.866ZM264.599 209.238H259.475V216H260.945V210.526H264.599V209.238ZM268.858 216.168C271.028 216.168 272.344 214.558 272.344 212.612C272.344 210.68 271.028 209.07 268.858 209.07C266.716 209.07 265.386 210.68 265.386 212.612C265.386 214.558 266.716 216.168 268.858 216.168ZM268.858 214.866C267.612 214.866 266.912 213.816 266.912 212.612C266.912 211.422 267.612 210.372 268.858 210.372C270.118 210.372 270.818 211.422 270.818 212.612C270.818 213.816 270.118 214.866 268.858 214.866ZM283.475 216V209.238H277.427V216H278.897V210.526H282.005V216H283.475ZM285.09 218.646C285.3 218.702 285.706 218.744 285.916 218.744C286.966 218.73 287.778 218.366 288.24 217.218L291.502 209.238H289.92L287.946 214.306L285.972 209.238H284.404L287.176 216.084L286.84 216.854C286.644 217.302 286.336 217.442 285.874 217.442C285.706 217.442 285.468 217.4 285.314 217.33L285.09 218.646ZM293.895 216V213.186H297.003V216H298.473V209.238H297.003V211.898H293.895V209.238H292.425V216H293.895ZM306.71 216L303.84 212.304L306.654 209.238H304.834L301.852 212.5V209.238H300.382V216H301.852V214.18L302.79 213.214L304.862 216H306.71ZM310.453 216V210.526H312.399V209.238H307.051V210.526H308.983V216H310.453ZM313.308 218.646C313.518 218.702 313.924 218.744 314.134 218.744C315.184 218.73 315.996 218.366 316.458 217.218L319.72 209.238H318.138L316.164 214.306L314.19 209.238H312.622L315.394 216.084L315.058 216.854C314.862 217.302 314.554 217.442 314.092 217.442C313.924 217.442 313.686 217.4 313.532 217.33L313.308 218.646ZM43 236V229.238H36.952V236H38.422V230.526H41.53V236H43ZM45.637 228.412C46.141 228.412 46.547 228.006 46.547 227.502C46.547 226.998 46.141 226.592 45.637 226.592C45.147 226.592 44.727 226.998 44.727 227.502C44.727 228.006 45.147 228.412 45.637 228.412ZM46.379 236V229.238H44.909V236H46.379ZM47.586 237.722H49.056V236H53.606V237.722H55.076V234.712H54.334V229.238H49.112L48.706 232.528C48.482 234.306 48.16 234.642 47.586 234.782V237.722ZM50.414 230.526H52.864V234.712H49.28C49.756 234.292 50.078 233.634 50.176 232.696L50.414 230.526ZM60.428 236C61.744 236 62.472 235.216 62.472 234.166C62.472 233.368 61.926 232.682 61.198 232.514C61.814 232.332 62.332 231.786 62.332 230.974C62.332 230.008 61.618 229.238 60.33 229.238H56.284V236H60.428ZM60.12 234.712H57.754V233.186H60.12C60.666 233.186 60.96 233.55 60.96 233.956C60.96 234.432 60.638 234.712 60.12 234.712ZM60.078 231.898H57.754V230.526H60.078C60.554 230.526 60.834 230.806 60.834 231.226C60.834 231.604 60.554 231.898 60.078 231.898ZM65.7098 236L68.8738 231.324V236H70.3438V229.238H68.8738L65.7658 233.788V229.238H64.2958V236H65.7098ZM79.9528 229.238V234.712H77.5728V229.238H76.1028V234.712H73.7228V229.238H72.2528V236H80.8348V237.722H82.3048V234.712H81.4228V229.238H79.9528ZM86.6267 236.168C87.7047 236.168 88.6987 235.832 89.3707 235.188L88.6987 234.222C88.2227 234.698 87.4387 234.964 86.7807 234.964C85.5067 234.964 84.7367 234.124 84.6247 233.102H89.8467V232.752C89.8467 230.624 88.5447 229.07 86.5147 229.07C84.5127 229.07 83.0847 230.652 83.0847 232.612C83.0847 234.754 84.5967 236.168 86.6267 236.168ZM88.4187 232.066H84.6107C84.6807 231.24 85.2547 230.274 86.5147 230.274C87.8447 230.274 88.3907 231.268 88.4187 232.066ZM92.7677 236V233.186H95.8757V236H97.3457V229.238H95.8757V231.898H92.7677V229.238H91.2977V236H92.7677ZM100.725 236V233.186H103.833V236H105.303V229.238H103.833V231.898H100.725V229.238H99.2547V236H100.725ZM108.654 236L110.138 233.55H111.692V236H113.162V229.238H109.298C107.842 229.238 107.058 230.232 107.058 231.394C107.058 232.556 107.758 233.284 108.64 233.48L106.974 236H108.654ZM109.48 232.262C108.892 232.262 108.556 231.898 108.556 231.394C108.556 230.89 108.92 230.526 109.48 230.526H111.692V232.262H109.48ZM124.983 236L122.113 232.304L124.927 229.238H123.107L120.125 232.5V229.238H118.655V236H120.125V234.18L121.063 233.214L123.135 236H124.983ZM130.168 236C131.484 236 132.212 235.216 132.212 234.166C132.212 233.368 131.666 232.682 130.938 232.514C131.554 232.332 132.072 231.786 132.072 230.974C132.072 230.008 131.358 229.238 130.07 229.238H126.024V236H130.168ZM129.86 234.712H127.494V233.186H129.86C130.406 233.186 130.7 233.55 130.7 233.956C130.7 234.432 130.378 234.712 129.86 234.712ZM129.818 231.898H127.494V230.526H129.818C130.294 230.526 130.574 230.806 130.574 231.226C130.574 231.604 130.294 231.898 129.818 231.898ZM139.636 236V231.52C139.636 229.7 138.32 229.07 136.822 229.07C135.744 229.07 134.764 229.42 133.98 230.162L134.582 231.184C135.17 230.61 135.828 230.33 136.584 230.33C137.522 230.33 138.166 230.806 138.166 231.59V232.598C137.676 232.024 136.892 231.73 135.982 231.73C134.876 231.73 133.63 232.374 133.63 233.928C133.63 235.426 134.876 236.168 135.982 236.168C136.878 236.168 137.662 235.846 138.166 235.272V236H139.636ZM136.556 235.16C135.73 235.16 135.114 234.684 135.114 233.956C135.114 233.214 135.73 232.738 136.556 232.738C137.2 232.738 137.83 232.976 138.166 233.438V234.46C137.83 234.922 137.2 235.16 136.556 235.16ZM140.842 236.168C142.326 236.168 143.166 235.146 143.432 232.696L143.67 230.526H146.12V236H147.59V229.238H142.368L141.962 232.528C141.738 234.306 141.416 234.964 140.842 234.964V236.168ZM150.227 228.412C150.731 228.412 151.137 228.006 151.137 227.502C151.137 226.998 150.731 226.592 150.227 226.592C149.737 226.592 149.317 226.998 149.317 227.502C149.317 228.006 149.737 228.412 150.227 228.412ZM150.969 236V229.238H149.499V236H150.969ZM155.2 229.07C153.73 229.07 152.68 230.4 152.68 232.626C152.68 234.852 153.73 236.168 155.2 236.168C155.942 236.168 156.6 235.748 157.02 235.076V238.576H158.49V235.062C158.952 235.79 159.596 236.168 160.31 236.168C161.78 236.168 162.83 234.838 162.83 232.612C162.83 230.386 161.78 229.07 160.31 229.07C159.568 229.07 158.91 229.49 158.49 230.162V226.662H157.02V230.176C156.558 229.448 155.914 229.07 155.2 229.07ZM155.662 230.372C156.194 230.372 156.768 230.792 157.02 231.282V233.956C156.768 234.46 156.194 234.866 155.662 234.866C154.752 234.866 154.164 233.928 154.164 232.626C154.164 231.31 154.752 230.372 155.662 230.372ZM159.848 234.866C159.316 234.866 158.742 234.446 158.49 233.956V231.282C158.742 230.778 159.316 230.372 159.848 230.372C160.758 230.372 161.346 231.31 161.346 232.612C161.346 233.928 160.758 234.866 159.848 234.866ZM165.266 228.412C165.77 228.412 166.176 228.006 166.176 227.502C166.176 226.998 165.77 226.592 165.266 226.592C164.776 226.592 164.356 226.998 164.356 227.502C164.356 228.006 164.776 228.412 165.266 228.412ZM166.008 236V229.238H164.538V236H166.008ZM174.243 236L171.373 232.304L174.187 229.238H172.367L169.385 232.5V229.238H167.915V236H169.385V234.18L170.323 233.214L172.395 236H174.243ZM180.884 236V231.52C180.884 229.7 179.568 229.07 178.07 229.07C176.992 229.07 176.012 229.42 175.228 230.162L175.83 231.184C176.418 230.61 177.076 230.33 177.832 230.33C178.77 230.33 179.414 230.806 179.414 231.59V232.598C178.924 232.024 178.14 231.73 177.23 231.73C176.124 231.73 174.878 232.374 174.878 233.928C174.878 235.426 176.124 236.168 177.23 236.168C178.126 236.168 178.91 235.846 179.414 235.272V236H180.884ZM177.804 235.16C176.978 235.16 176.362 234.684 176.362 233.956C176.362 233.214 176.978 232.738 177.804 232.738C178.448 232.738 179.078 232.976 179.414 233.438V234.46C179.078 234.922 178.448 235.16 177.804 235.16ZM188.11 237.722H189.58V234.712H188.838V229.238H187.368V234.712H184.26V229.238H182.79V236H188.11V237.722ZM191.516 228.412C192.02 228.412 192.426 228.006 192.426 227.502C192.426 226.998 192.02 226.592 191.516 226.592C191.026 226.592 190.606 226.998 190.606 227.502C190.606 228.006 191.026 228.412 191.516 228.412ZM192.258 236V229.238H190.788V236H192.258ZM197.189 227.488C197.189 227.04 196.811 226.676 196.363 226.676C195.915 226.676 195.537 227.04 195.537 227.488C195.537 227.95 195.915 228.314 196.363 228.314C196.811 228.314 197.189 227.95 197.189 227.488ZM194.249 227.488C194.249 227.04 193.885 226.676 193.437 226.676C192.975 226.676 192.611 227.04 192.611 227.488C192.611 227.95 192.975 228.314 193.437 228.314C193.885 228.314 194.249 227.95 194.249 227.488ZM195.635 236V229.238H194.165V236H195.635ZM203.798 238.086C202.874 236.364 202.37 234.796 202.37 232.598C202.37 230.4 202.874 228.832 203.798 227.096L202.888 226.41C201.572 228.034 200.774 230.344 200.774 232.598C200.774 234.852 201.572 237.176 202.888 238.786L203.798 238.086ZM212.581 236V229.238H210.649L208.801 233.606L206.925 229.238H205.007V236H206.477V231.296L208.507 236H209.095L211.111 231.296V236H212.581ZM215.237 236.154C215.769 236.154 216.217 235.706 216.217 235.174C216.217 234.642 215.769 234.194 215.237 234.194C214.705 234.194 214.257 234.642 214.257 235.174C214.257 235.706 214.705 236.154 215.237 236.154ZM223.189 236V226.662H221.551V236H223.189ZM229.276 236C230.592 236 231.32 235.216 231.32 234.166C231.32 233.368 230.774 232.682 230.046 232.514C230.662 232.332 231.18 231.786 231.18 230.974C231.18 230.008 230.466 229.238 229.178 229.238H225.132V236H229.276ZM228.968 234.712H226.602V233.186H228.968C229.514 233.186 229.808 233.55 229.808 233.956C229.808 234.432 229.486 234.712 228.968 234.712ZM228.926 231.898H226.602V230.526H228.926C229.402 230.526 229.682 230.806 229.682 231.226C229.682 231.604 229.402 231.898 228.926 231.898ZM238.743 236V231.52C238.743 229.7 237.427 229.07 235.929 229.07C234.851 229.07 233.871 229.42 233.087 230.162L233.689 231.184C234.277 230.61 234.935 230.33 235.691 230.33C236.629 230.33 237.273 230.806 237.273 231.59V232.598C236.783 232.024 235.999 231.73 235.089 231.73C233.983 231.73 232.737 232.374 232.737 233.928C232.737 235.426 233.983 236.168 235.089 236.168C235.985 236.168 236.769 235.846 237.273 235.272V236H238.743ZM235.663 235.16C234.837 235.16 234.221 234.684 234.221 233.956C234.221 233.214 234.837 232.738 235.663 232.738C236.307 232.738 236.937 232.976 237.273 233.438V234.46C236.937 234.922 236.307 235.16 235.663 235.16ZM242.119 236V233.186H245.227V236H246.697V229.238H245.227V231.898H242.119V229.238H240.649V236H242.119ZM251.658 236.168C253.828 236.168 255.144 234.558 255.144 232.612C255.144 230.68 253.828 229.07 251.658 229.07C249.516 229.07 248.186 230.68 248.186 232.612C248.186 234.558 249.516 236.168 251.658 236.168ZM251.658 234.866C250.412 234.866 249.712 233.816 249.712 232.612C249.712 231.422 250.412 230.372 251.658 230.372C252.918 230.372 253.618 231.422 253.618 232.612C253.618 233.816 252.918 234.866 251.658 234.866ZM259.46 233.242V231.982H256.1V233.242H259.46ZM270.123 236V235.076C272.881 234.852 274.561 233.48 274.561 231.338C274.561 229.224 272.881 227.824 270.123 227.6V226.662H268.485V227.614C265.713 227.838 264.047 229.224 264.047 231.338C264.047 233.48 265.713 234.852 268.485 235.076V236H270.123ZM272.881 231.338C272.881 232.584 271.901 233.424 270.123 233.606V229.07C271.901 229.266 272.881 230.106 272.881 231.338ZM265.727 231.338C265.727 230.106 266.707 229.266 268.485 229.07V233.606C266.707 233.41 265.727 232.57 265.727 231.338ZM279.74 236.168C281.49 236.168 282.736 234.838 282.736 232.612C282.736 230.386 281.49 229.07 279.74 229.07C278.858 229.07 278.074 229.49 277.57 230.162V229.238H276.1V238.576H277.57V235.062C278.116 235.79 278.886 236.168 279.74 236.168ZM279.306 234.866C278.62 234.866 277.892 234.446 277.57 233.956V231.282C277.892 230.778 278.62 230.372 279.306 230.372C280.468 230.372 281.21 231.31 281.21 232.612C281.21 233.928 280.468 234.866 279.306 234.866ZM289.794 236V231.52C289.794 229.7 288.478 229.07 286.98 229.07C285.902 229.07 284.922 229.42 284.138 230.162L284.74 231.184C285.328 230.61 285.986 230.33 286.742 230.33C287.68 230.33 288.324 230.806 288.324 231.59V232.598C287.834 232.024 287.05 231.73 286.14 231.73C285.034 231.73 283.788 232.374 283.788 233.928C283.788 235.426 285.034 236.168 286.14 236.168C287.036 236.168 287.82 235.846 288.324 235.272V236H289.794ZM286.714 235.16C285.888 235.16 285.272 234.684 285.272 233.956C285.272 233.214 285.888 232.738 286.714 232.738C287.358 232.738 287.988 232.976 288.324 233.438V234.46C287.988 234.922 287.358 235.16 286.714 235.16ZM293.17 236V233.186H296.278V236H297.748V229.238H296.278V231.898H293.17V229.238H291.7V236H293.17ZM305.985 236L303.115 232.304L305.929 229.238H304.109L301.127 232.5V229.238H299.657V236H301.127V234.18L302.065 233.214L304.137 236H305.985ZM307.754 228.412C308.258 228.412 308.664 228.006 308.664 227.502C308.664 226.998 308.258 226.592 307.754 226.592C307.264 226.592 306.844 226.998 306.844 227.502C306.844 228.006 307.264 228.412 307.754 228.412ZM308.496 236V229.238H307.026V236H308.496ZM314.547 236C315.863 236 316.591 235.216 316.591 234.166C316.591 233.368 316.045 232.682 315.317 232.514C315.933 232.332 316.451 231.786 316.451 230.974C316.451 230.008 315.737 229.238 314.449 229.238H310.403V236H314.547ZM314.239 234.712H311.873V233.186H314.239C314.785 233.186 315.079 233.55 315.079 233.956C315.079 234.432 314.757 234.712 314.239 234.712ZM314.197 231.898H311.873V230.526H314.197C314.673 230.526 314.953 230.806 314.953 231.226C314.953 231.604 314.673 231.898 314.197 231.898ZM321.495 236.168C322.811 236.168 323.609 235.608 324.085 234.964L323.119 234.068C322.741 234.586 322.223 234.866 321.565 234.866C320.333 234.866 319.521 233.928 319.521 232.612C319.521 231.296 320.333 230.372 321.565 230.372C322.223 230.372 322.741 230.638 323.119 231.17L324.085 230.274C323.609 229.63 322.811 229.07 321.495 229.07C319.437 229.07 317.995 230.568 317.995 232.612C317.995 234.67 319.437 236.168 321.495 236.168ZM325.374 229.238V236H329.238C330.694 236 331.478 235.006 331.478 233.844C331.478 232.682 330.736 231.688 329.238 231.688H326.844V229.238H325.374ZM329.056 232.976C329.644 232.976 329.98 233.34 329.98 233.844C329.98 234.348 329.644 234.712 329.056 234.712H326.844V232.976H329.056ZM339.262 236L336.392 232.304L339.206 229.238H337.386L334.404 232.5V229.238H332.934V236H334.404V234.18L335.342 233.214L337.414 236H339.262ZM342.124 235.468C342.124 234.656 341.606 234.194 341.032 234.194C340.514 234.194 340.08 234.628 340.08 235.16C340.08 235.678 340.444 236.042 340.92 236.042C341.004 236.042 341.116 236.014 341.158 236C341.06 236.476 340.598 237.05 340.15 237.316L340.808 237.862C341.578 237.316 342.124 236.434 342.124 235.468ZM41.096 256C42.412 256 43.14 255.216 43.14 254.166C43.14 253.368 42.594 252.682 41.866 252.514C42.482 252.332 43 251.786 43 250.974C43 250.008 42.286 249.238 40.998 249.238H36.952V256H41.096ZM40.788 254.712H38.422V253.186H40.788C41.334 253.186 41.628 253.55 41.628 253.956C41.628 254.432 41.306 254.712 40.788 254.712ZM40.746 251.898H38.422V250.526H40.746C41.222 250.526 41.502 250.806 41.502 251.226C41.502 251.604 41.222 251.898 40.746 251.898ZM44.6697 258.646C44.8797 258.702 45.2857 258.744 45.4957 258.744C46.5457 258.73 47.3577 258.366 47.8197 257.218L51.0817 249.238H49.4997L47.5257 254.306L45.5517 249.238H43.9837L46.7557 256.084L46.4197 256.854C46.2237 257.302 45.9157 257.442 45.4537 257.442C45.2857 257.442 45.0477 257.4 44.8937 257.33L44.6697 258.646ZM51.3047 256.168C52.7887 256.168 53.6287 255.146 53.8947 252.696L54.1327 250.526H56.5827V256H58.0527V249.238H52.8307L52.4247 252.528C52.2007 254.306 51.8787 254.964 51.3047 254.964V256.168ZM60.7178 256.154C61.2498 256.154 61.6978 255.706 61.6978 255.174C61.6978 254.642 61.2498 254.194 60.7178 254.194C60.1858 254.194 59.7378 254.642 59.7378 255.174C59.7378 255.706 60.1858 256.154 60.7178 256.154ZM66.4291 256.168C68.2351 256.168 69.4531 255.538 69.9011 251.576L70.2931 248.104H73.5271V256H75.1651V246.662H68.8231L68.2771 251.464C67.9551 254.222 67.4371 254.712 66.4291 254.712V256.168ZM80.2283 256.168C81.3063 256.168 82.3003 255.832 82.9723 255.188L82.3003 254.222C81.8243 254.698 81.0403 254.964 80.3823 254.964C79.1083 254.964 78.3383 254.124 78.2263 253.102H83.4483V252.752C83.4483 250.624 82.1463 249.07 80.1163 249.07C78.1143 249.07 76.6863 250.652 76.6863 252.612C76.6863 254.754 78.1983 256.168 80.2283 256.168ZM82.0203 252.066H78.2123C78.2823 251.24 78.8563 250.274 80.1163 250.274C81.4463 250.274 81.9923 251.268 82.0203 252.066ZM87.9793 256.168C89.2953 256.168 90.0933 255.608 90.5693 254.964L89.6033 254.068C89.2253 254.586 88.7073 254.866 88.0493 254.866C86.8173 254.866 86.0053 253.928 86.0053 252.612C86.0053 251.296 86.8173 250.372 88.0493 250.372C88.7073 250.372 89.2253 250.638 89.6033 251.17L90.5693 250.274C90.0933 249.63 89.2953 249.07 87.9793 249.07C85.9213 249.07 84.4793 250.568 84.4793 252.612C84.4793 254.67 85.9213 256.168 87.9793 256.168ZM92.5863 248.412C93.0903 248.412 93.4963 248.006 93.4963 247.502C93.4963 246.998 93.0903 246.592 92.5863 246.592C92.0963 246.592 91.6763 246.998 91.6763 247.502C91.6763 248.006 92.0963 248.412 92.5863 248.412ZM93.3283 256V249.238H91.8583V256H93.3283ZM99.9929 256.168C101.589 256.168 102.303 255.37 102.877 254.25L106.769 246.662H104.907L102.331 252.108L99.7549 246.662H97.8929L101.407 253.522C100.959 254.39 100.637 254.712 99.8809 254.712C99.4329 254.712 98.9989 254.474 98.6629 254.18L98.0749 255.524C98.3689 255.832 99.1529 256.168 99.9929 256.168ZM113.376 256L110.506 252.304L113.32 249.238H111.5L108.518 252.5V249.238H107.048V256H108.518V254.18L109.456 253.214L111.528 256H113.376ZM118.057 256.168C119.807 256.168 121.053 254.838 121.053 252.612C121.053 250.386 119.807 249.07 118.057 249.07C117.175 249.07 116.391 249.49 115.887 250.162V249.238H114.417V258.576H115.887V255.062C116.433 255.79 117.203 256.168 118.057 256.168ZM117.623 254.866C116.937 254.866 116.209 254.446 115.887 253.956V251.282C116.209 250.778 116.937 250.372 117.623 250.372C118.785 250.372 119.527 251.31 119.527 252.612C119.527 253.928 118.785 254.866 117.623 254.866ZM128.111 256V251.52C128.111 249.7 126.795 249.07 125.297 249.07C124.219 249.07 123.239 249.42 122.455 250.162L123.057 251.184C123.645 250.61 124.303 250.33 125.059 250.33C125.997 250.33 126.641 250.806 126.641 251.59V252.598C126.151 252.024 125.367 251.73 124.457 251.73C123.351 251.73 122.105 252.374 122.105 253.928C122.105 255.426 123.351 256.168 124.457 256.168C125.353 256.168 126.137 255.846 126.641 255.272V256H128.111ZM125.031 255.16C124.205 255.16 123.589 254.684 123.589 253.956C123.589 253.214 124.205 252.738 125.031 252.738C125.675 252.738 126.305 252.976 126.641 253.438V254.46C126.305 254.922 125.675 255.16 125.031 255.16ZM133.04 247.488C133.04 247.04 132.662 246.676 132.214 246.676C131.766 246.676 131.388 247.04 131.388 247.488C131.388 247.95 131.766 248.314 132.214 248.314C132.662 248.314 133.04 247.95 133.04 247.488ZM130.1 247.488C130.1 247.04 129.736 246.676 129.288 246.676C128.826 246.676 128.462 247.04 128.462 247.488C128.462 247.95 128.826 248.314 129.288 248.314C129.736 248.314 130.1 247.95 130.1 247.488ZM131.486 256V249.238H130.016V256H131.486ZM134.863 256V253.186H137.971V256H139.441V249.238H137.971V251.898H134.863V249.238H133.393V256H134.863ZM147.678 256L144.808 252.304L147.622 249.238H145.802L142.82 252.5V249.238H141.35V256H142.82V254.18L143.758 253.214L145.83 256H147.678ZM150.134 256L153.298 251.324V256H154.768V249.238H153.298L150.19 253.788V249.238H148.72V256H150.134ZM158.497 255.468C158.497 254.656 157.979 254.194 157.405 254.194C156.887 254.194 156.453 254.628 156.453 255.16C156.453 255.678 156.817 256.042 157.293 256.042C157.377 256.042 157.489 256.014 157.531 256C157.433 256.476 156.971 257.05 156.523 257.316L157.181 257.862C157.951 257.316 158.497 256.434 158.497 255.468ZM169.234 256V253.886H170.48V252.444H169.234V246.662H166.98L163.144 252.57V253.886H167.596V256H169.234ZM167.596 252.444H164.754L167.596 248.132V252.444ZM172.021 258.786C173.351 257.176 174.149 254.852 174.149 252.598C174.149 250.344 173.351 248.034 172.021 246.41L171.111 247.096C172.049 248.832 172.553 250.4 172.553 252.598C172.553 254.796 172.049 256.364 171.111 258.086L172.021 258.786ZM177.514 255.468C177.514 254.656 176.996 254.194 176.422 254.194C175.904 254.194 175.47 254.628 175.47 255.16C175.47 255.678 175.834 256.042 176.31 256.042C176.394 256.042 176.506 256.014 176.548 256C176.45 256.476 175.988 257.05 175.54 257.316L176.198 257.862C176.968 257.316 177.514 256.434 177.514 255.468ZM189.05 256L186.18 252.304L188.994 249.238H187.174L184.192 252.5V249.238H182.722V256H184.192V254.18L185.13 253.214L187.202 256H189.05ZM193.074 256.168C195.244 256.168 196.56 254.558 196.56 252.612C196.56 250.68 195.244 249.07 193.074 249.07C190.932 249.07 189.602 250.68 189.602 252.612C189.602 254.558 190.932 256.168 193.074 256.168ZM193.074 254.866C191.828 254.866 191.128 253.816 191.128 252.612C191.128 251.422 191.828 250.372 193.074 250.372C194.334 250.372 195.034 251.422 195.034 252.612C195.034 253.816 194.334 254.866 193.074 254.866ZM197.348 257.722H198.818V256H203.368V257.722H204.838V254.712H204.096V249.238H198.874L198.468 252.528C198.244 254.306 197.922 254.642 197.348 254.782V257.722ZM200.176 250.526H202.626V254.712H199.042C199.518 254.292 199.84 253.634 199.938 252.696L200.176 250.526ZM209.081 257.722H210.719V256H217.047V257.722H218.685V254.558H217.817V246.662H211.475L210.929 251.464C210.607 254.222 210.089 254.6 209.081 254.712V257.722ZM212.553 251.576L212.945 248.104H216.179V254.558H211.321C211.951 253.984 212.385 253.032 212.553 251.576ZM227.539 256L223.465 251.072L227.259 246.662H225.229L221.575 251.114V246.662H219.937V256H221.575V253.018L222.387 252.066L225.523 256H227.539ZM235.546 256.168C238.164 256.168 239.284 253.69 239.284 251.338C239.284 248.986 238.164 246.522 235.546 246.522C232.928 246.522 231.808 248.986 231.808 251.338C231.808 253.69 232.928 256.168 235.546 256.168ZM235.546 254.712C234.02 254.712 233.474 253.116 233.474 251.338C233.474 249.56 234.02 247.978 235.546 247.978C237.072 247.978 237.618 249.56 237.618 251.338C237.618 253.116 237.072 254.712 235.546 254.712ZM247.323 256V254.558H243.179C245.685 252.668 247.267 251.128 247.267 249.406C247.267 247.544 245.685 246.522 243.879 246.522C242.577 246.522 241.261 247.026 240.435 248.02L241.387 249.098C241.975 248.426 242.815 247.978 243.907 247.978C244.761 247.978 245.601 248.426 245.601 249.406C245.601 250.75 244.187 251.968 240.561 254.712V256H247.323ZM252.514 256V246.662H251.086L248.398 249.378L249.35 250.372L250.876 248.79V256H252.514ZM255.214 251.1C255.746 251.1 256.194 250.652 256.194 250.12C256.194 249.588 255.746 249.14 255.214 249.14C254.682 249.14 254.234 249.588 254.234 250.12C254.234 250.652 254.682 251.1 255.214 251.1ZM255.214 256.154C255.746 256.154 256.194 255.706 256.194 255.174C256.194 254.642 255.746 254.194 255.214 254.194C254.682 254.194 254.234 254.642 254.234 255.174C254.234 255.706 254.682 256.154 255.214 256.154ZM264.4 256V254.558H260.256C262.762 252.668 264.344 251.128 264.344 249.406C264.344 247.544 262.762 246.522 260.956 246.522C259.654 246.522 258.338 247.026 257.512 248.02L258.464 249.098C259.052 248.426 259.892 247.978 260.984 247.978C261.838 247.978 262.678 248.426 262.678 249.406C262.678 250.75 261.264 251.968 257.638 254.712V256H264.4ZM269.576 256.168C272.194 256.168 273.314 253.69 273.314 251.338C273.314 248.986 272.194 246.522 269.576 246.522C266.958 246.522 265.838 248.986 265.838 251.338C265.838 253.69 266.958 256.168 269.576 256.168ZM269.576 254.712C268.05 254.712 267.504 253.116 267.504 251.338C267.504 249.56 268.05 247.978 269.576 247.978C271.102 247.978 271.648 249.56 271.648 251.338C271.648 253.116 271.102 254.712 269.576 254.712ZM278.217 256V246.662H276.789L274.101 249.378L275.053 250.372L276.579 248.79V256H278.217ZM283.465 256.168C285.551 256.168 287.021 254.95 287.021 253.004C287.021 251.1 285.607 249.994 284.039 249.994C283.143 249.994 282.373 250.358 281.925 250.806V248.104H286.405V246.662H280.287V251.884L281.449 252.22C282.037 251.66 282.695 251.408 283.493 251.408C284.641 251.408 285.369 252.066 285.369 253.074C285.369 253.984 284.627 254.712 283.451 254.712C282.401 254.712 281.561 254.32 280.931 253.606L279.993 254.726C280.749 255.622 281.855 256.168 283.465 256.168ZM294.979 253.242V251.982H291.619V253.242H294.979ZM40.312 276.168C42.93 276.168 44.05 273.69 44.05 271.338C44.05 268.986 42.93 266.522 40.312 266.522C37.694 266.522 36.574 268.986 36.574 271.338C36.574 273.69 37.694 276.168 40.312 276.168ZM40.312 274.712C38.786 274.712 38.24 273.116 38.24 271.338C38.24 269.56 38.786 267.978 40.312 267.978C41.838 267.978 42.384 269.56 42.384 271.338C42.384 273.116 41.838 274.712 40.312 274.712ZM48.337 276.154C51.039 276.154 52.453 274.026 52.453 271.338C52.453 268.734 51.347 266.508 48.603 266.508C46.517 266.508 45.159 267.922 45.159 269.644C45.159 271.632 46.615 272.668 48.295 272.668C49.387 272.668 50.367 271.982 50.801 271.352C50.801 271.45 50.801 271.534 50.801 271.632C50.801 273.158 50.031 274.698 48.337 274.698C47.455 274.698 46.909 274.39 46.419 273.886L45.663 275.118C46.293 275.748 47.189 276.154 48.337 276.154ZM48.729 271.254C47.721 271.254 46.825 270.736 46.825 269.588C46.825 268.846 47.469 267.964 48.687 267.964C50.129 267.964 50.689 269.154 50.773 270.162C50.311 270.834 49.527 271.254 48.729 271.254ZM56.8992 276.168C59.0552 276.168 60.4132 275.034 60.4132 273.452C60.4132 272.01 59.1532 271.268 58.2432 271.184C59.2092 271.016 60.2732 270.288 60.2732 269.042C60.2732 267.474 58.9152 266.522 56.8992 266.522C55.3452 266.522 54.2112 267.152 53.4972 267.992L54.3372 269.014C55.0092 268.342 55.7932 267.978 56.7452 267.978C57.7952 267.978 58.6352 268.426 58.6352 269.294C58.6352 270.148 57.8092 270.526 56.7172 270.526C56.3532 270.526 55.8072 270.526 55.6392 270.512V271.982C55.7792 271.968 56.3252 271.968 56.7172 271.968C58.0472 271.968 58.7892 272.36 58.7892 273.284C58.7892 274.152 58.0752 274.712 56.8432 274.712C55.8492 274.712 54.8552 274.278 54.2532 273.578L53.3712 274.656C54.0012 275.496 55.2332 276.168 56.8992 276.168ZM65.4002 276V266.662H63.9722L61.2842 269.378L62.2362 270.372L63.7622 268.79V276H65.4002ZM70.7046 276.168C73.3226 276.168 74.4426 273.69 74.4426 271.338C74.4426 268.986 73.3226 266.522 70.7046 266.522C68.0866 266.522 66.9666 268.986 66.9666 271.338C66.9666 273.69 68.0866 276.168 70.7046 276.168ZM70.7046 274.712C69.1786 274.712 68.6326 273.116 68.6326 271.338C68.6326 269.56 69.1786 267.978 70.7046 267.978C72.2306 267.978 72.7766 269.56 72.7766 271.338C72.7766 273.116 72.2306 274.712 70.7046 274.712ZM79.3315 276.168C81.9495 276.168 83.0695 273.69 83.0695 271.338C83.0695 268.986 81.9495 266.522 79.3315 266.522C76.7135 266.522 75.5935 268.986 75.5935 271.338C75.5935 273.69 76.7135 276.168 79.3315 276.168ZM79.3315 274.712C77.8055 274.712 77.2595 273.116 77.2595 271.338C77.2595 269.56 77.8055 267.978 79.3315 267.978C80.8575 267.978 81.4035 269.56 81.4035 271.338C81.4035 273.116 80.8575 274.712 79.3315 274.712ZM87.9585 276.168C90.5765 276.168 91.6965 273.69 91.6965 271.338C91.6965 268.986 90.5765 266.522 87.9585 266.522C85.3405 266.522 84.2205 268.986 84.2205 271.338C84.2205 273.69 85.3405 276.168 87.9585 276.168ZM87.9585 274.712C86.4325 274.712 85.8865 273.116 85.8865 271.338C85.8865 269.56 86.4325 267.978 87.9585 267.978C89.4845 267.978 90.0305 269.56 90.0305 271.338C90.0305 273.116 89.4845 274.712 87.9585 274.712ZM96.5854 276.168C99.2034 276.168 100.323 273.69 100.323 271.338C100.323 268.986 99.2034 266.522 96.5854 266.522C93.9674 266.522 92.8474 268.986 92.8474 271.338C92.8474 273.69 93.9674 276.168 96.5854 276.168ZM96.5854 274.712C95.0594 274.712 94.5134 273.116 94.5134 271.338C94.5134 269.56 95.0594 267.978 96.5854 267.978C98.1114 267.978 98.6574 269.56 98.6574 271.338C98.6574 273.116 98.1114 274.712 96.5854 274.712ZM104.68 273.242V271.982H101.32V273.242H104.68ZM109.354 276.168C111.44 276.168 112.91 274.95 112.91 273.004C112.91 271.1 111.496 269.994 109.928 269.994C109.032 269.994 108.262 270.358 107.814 270.806V268.104H112.294V266.662H106.176V271.884L107.338 272.22C107.926 271.66 108.584 271.408 109.382 271.408C110.53 271.408 111.258 272.066 111.258 273.074C111.258 273.984 110.516 274.712 109.34 274.712C108.29 274.712 107.45 274.32 106.82 273.606L105.882 274.726C106.638 275.622 107.744 276.168 109.354 276.168Z" fill="#0A0A0B"/>
                <path d="M368 126C368 128.209 369.791 130 372 130H380C382.209 130 384 128.209 384 126V118C384 115.791 382.209 114 380 114H372C369.791 114 368 115.791 368 118V126Z" fill="#F7F7F8"/>
                <path d="M372 129H380V131H372V129ZM383 126V118H385V126H383ZM380 115H372V113H380V115ZM369 118V126H367V118H369ZM372 115C370.343 115 369 116.343 369 118H367C367 115.239 369.239 113 372 113V115ZM383 118C383 116.343 381.657 115 380 115V113C382.761 113 385 115.239 385 118H383ZM380 129C381.657 129 383 127.657 383 126H385C385 128.761 382.761 131 380 131V129ZM372 131C369.239 131 367 128.761 367 126H369C369 127.657 370.343 129 372 129V131Z" fill="#D4D4D8"/>
            </g>
        </g>
        <path d="M20 27H380V19H20V27ZM396 43V270H404V43H396ZM380 286H20V294H380V286ZM4 270V43H-4V270H4ZM20 286C11.1634 286 4 278.837 4 270H-4C-4 283.255 6.74517 294 20 294V286ZM396 270C396 278.837 388.837 286 380 286V294C393.255 294 404 283.255 404 270H396ZM380 27C388.837 27 396 34.1634 396 43H404C404 29.7452 393.255 19 380 19V27ZM20 19C6.74517 19 -4 29.7452 -4 43H4C4 34.1634 11.1634 27 20 27V19Z" fill="white"/>
    </g>
    <g filter="url(#filter1_d)">
        <g filter="url(#filter2_d)">
            <path d="M379.705 131.239C379.425 130.879 379.075 130.149 378.465 129.239C378.115 128.739 377.255 127.789 376.995 127.299C376.808 127.001 376.754 126.639 376.845 126.299C377.002 125.653 377.615 125.225 378.275 125.299C378.786 125.402 379.256 125.652 379.625 126.019C379.884 126.262 380.121 126.526 380.335 126.809C380.495 127.009 380.535 127.089 380.715 127.319C380.895 127.549 381.015 127.779 380.925 127.439C380.855 126.939 380.735 126.099 380.565 125.349C380.435 124.779 380.405 124.689 380.285 124.259C380.165 123.829 380.095 123.469 379.965 122.979C379.847 122.497 379.753 122.01 379.685 121.519C379.559 120.891 379.651 120.238 379.945 119.669C380.295 119.34 380.807 119.254 381.245 119.449C381.686 119.774 382.015 120.229 382.185 120.749C382.447 121.389 382.622 122.062 382.705 122.749C382.865 123.749 383.175 125.209 383.185 125.509C383.185 125.139 383.115 124.359 383.185 124.009C383.255 123.644 383.508 123.341 383.855 123.209C384.153 123.118 384.468 123.097 384.775 123.149C385.085 123.214 385.36 123.392 385.545 123.649C385.777 124.232 385.906 124.852 385.925 125.479C385.952 124.929 386.046 124.385 386.205 123.859C386.373 123.623 386.617 123.454 386.895 123.379C387.226 123.318 387.565 123.318 387.895 123.379C388.167 123.47 388.404 123.64 388.575 123.869C388.787 124.399 388.915 124.959 388.955 125.529C388.955 125.669 389.025 125.139 389.245 124.789C389.36 124.45 389.646 124.197 389.998 124.126C390.349 124.055 390.711 124.177 390.948 124.446C391.184 124.715 391.26 125.09 391.145 125.429C391.145 126.079 391.145 126.049 391.145 126.489C391.145 126.929 391.145 127.319 391.145 127.689C391.109 128.274 391.029 128.856 390.905 129.429C390.731 129.936 390.489 130.417 390.185 130.859C389.7 131.399 389.299 132.009 388.995 132.669C388.92 132.997 388.887 133.333 388.895 133.669C388.894 133.98 388.935 134.289 389.015 134.589C388.607 134.632 388.194 134.632 387.785 134.589C387.395 134.529 386.915 133.749 386.785 133.509C386.721 133.38 386.589 133.299 386.445 133.299C386.301 133.299 386.17 133.38 386.105 133.509C385.885 133.889 385.395 134.579 385.055 134.619C384.385 134.699 383.005 134.619 381.915 134.619C381.915 134.619 382.095 133.619 381.685 133.259C381.275 132.899 380.855 132.479 380.545 132.199L379.705 131.239Z" fill="white"/>
            <path fill-rule="evenodd" clip-rule="evenodd" d="M379.705 131.239C379.425 130.879 379.075 130.149 378.465 129.239C378.115 128.739 377.255 127.789 376.995 127.299C376.808 127.001 376.754 126.639 376.845 126.299C377.002 125.653 377.615 125.225 378.275 125.299C378.786 125.402 379.256 125.652 379.625 126.019C379.884 126.262 380.121 126.526 380.335 126.809C380.495 127.009 380.535 127.089 380.715 127.319C380.895 127.549 381.015 127.779 380.925 127.439C380.855 126.939 380.735 126.099 380.565 125.349C380.435 124.779 380.405 124.689 380.285 124.259C380.165 123.829 380.095 123.469 379.965 122.979C379.847 122.497 379.753 122.01 379.685 121.519C379.559 120.891 379.651 120.238 379.945 119.669C380.295 119.34 380.807 119.254 381.245 119.449C381.686 119.774 382.015 120.229 382.185 120.749C382.447 121.389 382.622 122.062 382.705 122.749C382.865 123.749 383.175 125.209 383.185 125.509C383.185 125.139 383.115 124.359 383.185 124.009C383.255 123.644 383.508 123.341 383.855 123.209C384.153 123.118 384.468 123.097 384.775 123.149C385.085 123.214 385.36 123.392 385.545 123.649C385.777 124.232 385.906 124.852 385.925 125.479C385.952 124.929 386.046 124.385 386.205 123.859C386.373 123.623 386.617 123.454 386.895 123.379C387.226 123.318 387.565 123.318 387.895 123.379C388.167 123.47 388.404 123.64 388.575 123.869C388.787 124.399 388.915 124.959 388.955 125.529C388.955 125.669 389.025 125.139 389.245 124.789C389.36 124.45 389.646 124.197 389.998 124.126C390.349 124.055 390.711 124.177 390.948 124.446C391.184 124.715 391.26 125.09 391.145 125.429C391.145 126.079 391.145 126.049 391.145 126.489C391.145 126.929 391.145 127.319 391.145 127.689C391.109 128.274 391.029 128.856 390.905 129.429C390.731 129.936 390.489 130.417 390.185 130.859C389.7 131.399 389.299 132.009 388.995 132.669C388.92 132.997 388.887 133.333 388.895 133.669C388.894 133.98 388.935 134.289 389.015 134.589C388.607 134.632 388.194 134.632 387.785 134.589C387.395 134.529 386.915 133.749 386.785 133.509C386.721 133.38 386.589 133.299 386.445 133.299C386.301 133.299 386.17 133.38 386.105 133.509C385.885 133.889 385.395 134.579 385.055 134.619C384.385 134.699 383.005 134.619 381.915 134.619C381.915 134.619 382.095 133.619 381.685 133.259C381.275 132.899 380.855 132.479 380.545 132.199L379.705 131.239Z" stroke="black" stroke-width="0.75" stroke-linecap="round" stroke-linejoin="round"/>
            <path d="M388.186 131.785V128.333C388.186 128.126 388.018 127.959 387.811 127.959C387.603 127.959 387.436 128.126 387.436 128.333V131.785C387.436 131.991 387.603 132.159 387.811 132.159C388.018 132.159 388.186 131.991 388.186 131.785Z" fill="black"/>
            <path d="M386.206 131.784L386.186 128.33C386.184 128.124 386.015 127.958 385.808 127.959C385.601 127.96 385.434 128.128 385.436 128.334L385.456 131.788C385.457 131.994 385.626 132.16 385.833 132.159C386.04 132.158 386.207 131.99 386.206 131.784Z" fill="black"/>
            <path d="M383.436 128.338L383.456 131.784C383.457 131.992 383.626 132.16 383.833 132.159C384.04 132.158 384.207 131.988 384.206 131.78L384.186 128.334C384.184 128.125 384.015 127.958 383.808 127.959C383.601 127.96 383.434 128.13 383.436 128.338Z" fill="black"/>
        </g>
    </g>
    <circle cx="358" cy="20" r="20" fill="white"/>
    <path d="M358 12C354.686 12 352 14.6863 352 18V23C351.438 23.5618 350 25.1901 350 26C350 26.5523 350.448 27 351 27H365C365.552 27 366 26.5523 366 26C366 25.1901 364.562 23.5618 364 23V18C364 14.6863 361.314 12 358 12Z" fill="#0A0A0B"/>
    <rect x="357" y="13" width="3" height="2" rx="1" transform="rotate(-90 357 13)" fill="#0A0A0B"/>
    <path d="M357 30C356.448 30 356 29.5523 356 29L356 28L360 28L360 29C360 29.5523 359.552 30 359 30L357 30Z" fill="#0A0A0B"/>
    <circle cx="362" cy="16" r="8" fill="#FF6666"/>
    <path d="M364.828 20V18.764H361.276C363.424 17.144 364.78 15.824 364.78 14.348C364.78 12.752 363.424 11.876 361.876 11.876C360.76 11.876 359.632 12.308 358.924 13.16L359.74 14.084C360.244 13.508 360.964 13.124 361.9 13.124C362.632 13.124 363.352 13.508 363.352 14.348C363.352 15.5 362.14 16.544 359.032 18.896V20H364.828Z" fill="white"/>
    <defs>
        <filter id="filter0_d" x="0" y="23" width="400" height="267" filterUnits="userSpaceOnUse" color-interpolation-filters="sRGB">
            <feFlood flood-opacity="0" result="BackgroundImageFix"/>
            <feColorMatrix in="SourceAlpha" type="matrix" values="0 0 0 0 0 0 0 0 0 0 0 0 0 0 0 0 0 0 127 0"/>
            <feMorphology radius="40" operator="erode" in="SourceAlpha" result="effect1_dropShadow"/>
            <feOffset dy="6"/>
            <feGaussianBlur stdDeviation="6"/>
            <feColorMatrix type="matrix" values="0 0 0 0 0.0784314 0 0 0 0 0.0784314 0 0 0 0 0.145098 0 0 0 0.16 0"/>
            <feBlend mode="multiply" in2="BackgroundImageFix" result="effect1_dropShadow"/>
            <feBlend mode="normal" in="SourceGraphic" in2="effect1_dropShadow" result="shape"/>
        </filter>
        <filter id="filter1_d" x="370" y="115" width="28" height="28" filterUnits="userSpaceOnUse" color-interpolation-filters="sRGB">
            <feFlood flood-opacity="0" result="BackgroundImageFix"/>
            <feColorMatrix in="SourceAlpha" type="matrix" values="0 0 0 0 0 0 0 0 0 0 0 0 0 0 0 0 0 0 127 0"/>
            <feOffset dy="2"/>
            <feGaussianBlur stdDeviation="1"/>
            <feColorMatrix type="matrix" values="0 0 0 0 0 0 0 0 0 0 0 0 0 0 0 0 0 0 0.25 0"/>
            <feBlend mode="normal" in2="BackgroundImageFix" result="effect1_dropShadow"/>
            <feBlend mode="normal" in="SourceGraphic" in2="effect1_dropShadow" result="shape"/>
        </filter>
        <filter id="filter2_d" x="375.627" y="118.971" width="16.7461" height="17.8588" filterUnits="userSpaceOnUse" color-interpolation-filters="sRGB">
            <feFlood flood-opacity="0" result="BackgroundImageFix"/>
            <feColorMatrix in="SourceAlpha" type="matrix" values="0 0 0 0 0 0 0 0 0 0 0 0 0 0 0 0 0 0 127 0"/>
            <feOffset dy="1"/>
            <feGaussianBlur stdDeviation="0.4"/>
            <feColorMatrix type="matrix" values="0 0 0 0 0 0 0 0 0 0 0 0 0 0 0 0 0 0 0.5 0"/>
            <feBlend mode="normal" in2="BackgroundImageFix" result="effect1_dropShadow"/>
            <feBlend mode="normal" in="SourceGraphic" in2="effect1_dropShadow" result="shape"/>
        </filter>
        <clipPath id="clip0">
            <path d="M0 43C0 31.9543 8.95431 23 20 23H380C391.046 23 400 31.9543 400 43V270C400 281.046 391.046 290 380 290H20C8.95431 290 0 281.046 0 270V43Z" fill="white"/>
        </clipPath>
        <clipPath id="clip1">
            <rect width="400" height="500" fill="white" transform="translate(0 23)"/>
        </clipPath>
    </defs>
</svg>
