<?xml version="1.0" standalone="no"?>
<!DOCTYPE svg PUBLIC "-//W3C//DTD SVG 20010904//EN"
 "http://www.w3.org/TR/2001/REC-SVG-20010904/DTD/svg10.dtd">
<svg version="1.0" xmlns="http://www.w3.org/2000/svg"
 width="1152.000000pt" height="1152.000000pt" viewBox="0 0 1152.000000 1152.000000"
 preserveAspectRatio="xMidYMid meet">
<metadata>
Created by potrace 1.14, written by Peter Selinger 2001-2017
</metadata>
<g transform="translate(0.000000,1152.000000) scale(0.100000,-0.100000)"
fill="#000000" stroke="none">
<path d="M729 10016 c-2 -2 -24 -7 -49 -10 -65 -10 -71 -11 -115 -26 -176 -58
-368 -209 -440 -347 -11 -21 -23 -40 -26 -43 -10 -8 -72 -163 -75 -189 -1 -9
-7 -38 -12 -66 -11 -51 -9 -241 3 -285 3 -14 7 -32 9 -40 4 -29 29 -105 38
-115 4 -5 8 -15 8 -22 0 -7 18 -43 40 -79 22 -36 40 -68 40 -71 0 -2 6 -11 12
-18 28 -31 37 -43 52 -73 9 -18 21 -32 26 -32 6 0 10 -9 10 -19 0 -11 5 -23
10 -26 14 -8 210 -302 210 -314 0 -5 4 -11 8 -13 11 -4 72 -94 72 -106 0 -6 4
-12 8 -14 5 -1 31 -37 58 -78 27 -41 55 -81 62 -88 6 -7 12 -19 12 -27 0 -7 4
-15 8 -17 4 -1 53 -70 108 -153 54 -82 102 -154 107 -160 31 -42 117 -176 117
-184 0 -5 4 -11 8 -13 11 -4 312 -455 312 -467 0 -5 4 -11 8 -13 11 -4 372
-546 372 -557 0 -5 4 -11 8 -13 11 -4 552 -815 552 -827 0 -5 4 -11 8 -13 11
-4 72 -94 72 -106 0 -6 4 -12 8 -14 11 -4 232 -335 232 -347 0 -5 4 -11 8 -13
5 -1 104 -146 220 -321 117 -175 212 -314 212 -310 0 4 2 287 4 628 2 341 6
631 9 645 3 14 8 52 12 85 4 32 9 68 11 80 2 11 6 31 9 45 10 53 14 72 19 88
3 9 7 28 10 42 8 47 60 205 69 211 5 3 9 10 8 15 -1 18 13 60 25 79 7 11 13
24 13 28 -1 15 91 197 144 285 67 111 193 282 209 282 6 0 8 3 4 7 -4 4 5 19
19 33 13 14 64 66 113 115 48 50 105 104 126 120 21 17 53 43 70 58 17 15 43
35 59 43 15 8 27 19 27 25 0 6 4 8 9 5 5 -4 11 -3 13 1 4 11 97 73 107 73 5 0
11 4 13 8 2 5 44 30 93 57 50 26 96 53 104 59 8 6 16 10 18 8 2 -1 25 7 51 19
43 19 163 67 187 73 6 2 17 5 25 8 21 8 121 37 145 43 11 2 40 9 64 15 24 6
46 8 49 5 3 -2 10 -1 16 4 6 5 29 11 51 14 22 4 74 11 115 18 54 9 331 13 973
14 494 1 899 4 901 6 1 2 52 78 111 169 60 91 112 167 117 168 4 2 8 7 8 11 0
5 102 161 226 347 124 187 233 353 241 369 9 17 19 32 22 35 4 3 15 28 25 55
10 28 20 57 23 65 23 60 40 184 38 275 -2 95 -34 243 -65 305 -10 19 -18 37
-18 40 2 19 -106 163 -163 220 -101 100 -254 181 -409 216 -34 8 -6362 18
-6371 10z"/>
<path d="M6928 7706 c-18 -20 -148 -215 -148 -222 0 -2 -6 -12 -14 -21 -28
-35 -226 -335 -226 -343 0 -5 -4 -10 -8 -12 -5 -1 -62 -84 -127 -183 -65 -99
-122 -181 -127 -183 -4 -2 -8 -10 -8 -18 0 -8 -4 -14 -10 -14 -5 0 -10 -5 -10
-10 0 -13 -121 -193 -132 -198 -4 -2 -8 -8 -8 -12 0 -11 -161 -253 -175 -262
-6 -5 -6 -8 0 -8 7 0 7 -3 0 -8 -5 -4 -37 -47 -70 -97 -32 -49 -63 -91 -67
-93 -4 -2 -8 -8 -8 -12 0 -5 -52 -86 -115 -181 -63 -94 -115 -175 -115 -179 0
-5 -3 -10 -8 -12 -4 -1 -57 -77 -117 -168 -60 -91 -113 -169 -117 -175 -28
-36 -318 -478 -318 -485 0 -4 -3 -10 -8 -12 -10 -4 -152 -217 -152 -228 0 -4
-3 -10 -7 -12 -11 -4 -153 -216 -153 -227 0 -5 -3 -11 -8 -13 -4 -1 -38 -48
-75 -104 -37 -55 -83 -118 -102 -138 -19 -21 -35 -42 -35 -47 0 -5 -4 -9 -8
-9 -5 0 -17 -8 -28 -18 -46 -42 -129 -99 -156 -108 -10 -4 -18 -10 -18 -15 0
-5 -3 -8 -7 -7 -5 1 -26 -6 -47 -15 -136 -59 -334 -78 -479 -45 -111 24 -104
22 -172 53 -144 66 -273 179 -370 326 -25 37 -45 71 -45 75 0 4 -6 12 -14 18
-8 6 -23 28 -34 49 -11 21 -22 35 -25 30 -9 -15 -4 -2113 5 -2161 5 -26 10
-56 10 -67 1 -11 5 -24 8 -30 7 -10 23 -67 20 -73 0 -1 20 -42 46 -90 41 -76
115 -177 165 -222 80 -73 219 -155 299 -175 3 -1 12 -5 20 -8 8 -4 47 -14 85
-22 61 -13 427 -14 2900 -11 1557 2 2851 5 2877 7 27 2 48 8 48 12 0 5 4 6 8
3 7 -4 208 34 262 49 8 2 31 8 50 13 20 5 44 14 55 19 11 6 22 11 25 11 11 0
95 26 100 32 3 3 12 6 20 8 65 15 426 204 460 242 3 3 18 14 35 24 16 11 34
23 40 28 13 11 44 35 92 73 40 32 251 240 293 290 14 17 46 57 70 90 25 33 49
64 53 70 41 52 217 359 217 380 1 3 10 26 21 52 35 80 79 208 94 273 1 8 10
40 19 70 9 30 17 69 18 85 1 17 5 35 9 40 3 6 10 39 14 75 4 36 10 85 13 110
9 58 9 3444 1 3490 -4 19 -9 42 -13 50 -3 8 -7 24 -9 35 -12 62 -88 209 -148
285 -53 67 -167 170 -188 170 -6 0 -11 4 -11 8 0 4 -12 13 -27 19 -16 7 -35
16 -43 21 -8 6 -27 15 -42 21 -16 6 -38 15 -50 21 -13 5 -32 12 -43 13 -11 2
-27 7 -35 10 -49 18 -283 21 -2029 22 l-1923 2 -20 -21z"/>
</g>
</svg>
